<svg width="13" height="17" viewBox="0 0 13 17" fill="none" xmlns="http://www.w3.org/2000/svg">
<path d="M12.0999 7.1C12.0999 11.3 6.4999 15.5 6.4999 15.5C6.4999 15.5 0.899902 11.3 0.899902 7.1C0.899902 5.61479 1.4899 4.19041 2.5401 3.1402C3.59031 2.09 5.01469 1.5 6.4999 1.5C7.98511 1.5 9.4095 2.09 10.4597 3.1402C11.5099 4.19041 12.0999 5.61479 12.0999 7.1Z" stroke="#333333" stroke-width="1.5" stroke-linecap="round" stroke-linejoin="round"/>
<path d="M6.4999 9.2C7.6597 9.2 8.5999 8.2598 8.5999 7.1C8.5999 5.9402 7.6597 5 6.4999 5C5.3401 5 4.3999 5.9402 4.3999 7.1C4.3999 8.2598 5.3401 9.2 6.4999 9.2Z" stroke="#333333" stroke-width="1.5" stroke-linecap="round" stroke-linejoin="round"/>
</svg>
