<svg width="20" height="20" viewBox="0 0 20 20" fill="none" xmlns="http://www.w3.org/2000/svg">
<path d="M18.7731 17.7107L13.6087 12.5425C14.6268 11.3215 15.2392 9.76109 15.2392 8.05682C15.2392 4.16871 12.0483 1.00732 8.12327 1.00732C4.19828 1.00732 1 4.1724 1 8.06051C1 11.9486 4.1909 15.11 8.11589 15.11C9.78328 15.11 11.3179 14.5382 12.5352 13.5828L17.7181 18.7657C18.0206 19.0682 18.4706 19.0682 18.7731 18.7657C19.0756 18.4632 19.0756 18.0132 18.7731 17.7107ZM2.51245 8.06051C2.51245 5.00609 5.02828 2.52346 8.11589 2.52346C11.2035 2.52346 13.7193 5.00609 13.7193 8.06051C13.7193 11.1149 11.2035 13.5975 8.11589 13.5975C5.02828 13.5975 2.51245 11.1112 2.51245 8.06051Z" fill="#CACACA" stroke="#CACACA"/>
</svg>
