<svg width="95" height="20" viewBox="0 0 95 20" fill="none" xmlns="http://www.w3.org/2000/svg">
<path d="M4.732 10.6C4.732 9.56 4.964 8.672 5.428 7.936C5.892 7.2 6.5 6.64 7.252 6.256C8.02 5.872 8.86 5.68 9.772 5.68C10.572 5.68 11.276 5.784 11.884 5.992C12.492 6.184 13.036 6.456 13.516 6.808C13.996 7.144 14.42 7.504 14.788 7.888V3.52C14.116 2.992 13.38 2.576 12.58 2.272C11.78 1.968 10.764 1.816 9.532 1.816C8.188 1.816 6.948 2.024 5.812 2.44C4.676 2.856 3.7 3.456 2.884 4.24C2.068 5.024 1.436 5.952 0.988 7.024C0.54 8.096 0.316 9.288 0.316 10.6C0.316 11.912 0.54 13.104 0.988 14.176C1.436 15.248 2.068 16.176 2.884 16.96C3.7 17.744 4.676 18.344 5.812 18.76C6.948 19.176 8.188 19.384 9.532 19.384C10.764 19.384 11.78 19.232 12.58 18.928C13.38 18.624 14.116 18.208 14.788 17.68V13.312C14.42 13.696 13.996 14.056 13.516 14.392C13.036 14.728 12.492 15 11.884 15.208C11.276 15.416 10.572 15.52 9.772 15.52C8.86 15.52 8.02 15.328 7.252 14.944C6.5 14.56 5.892 14 5.428 13.264C4.964 12.512 4.732 11.624 4.732 10.6ZM20.5521 15.544C20.5521 15.272 20.6161 15.048 20.7441 14.872C20.8721 14.68 21.0641 14.536 21.3201 14.44C21.5761 14.344 21.9201 14.296 22.3521 14.296C22.9121 14.296 23.4401 14.376 23.9361 14.536C24.4481 14.68 24.8961 14.896 25.2801 15.184V13.576C25.0881 13.368 24.8001 13.168 24.4161 12.976C24.0321 12.784 23.5681 12.624 23.0241 12.496C22.4961 12.368 21.8961 12.304 21.2241 12.304C19.8481 12.304 18.7841 12.616 18.0321 13.24C17.2801 13.848 16.9041 14.68 16.9041 15.736C16.9041 16.488 17.0801 17.128 17.4321 17.656C17.8001 18.184 18.2801 18.584 18.8721 18.856C19.4801 19.112 20.1361 19.24 20.8401 19.24C21.5441 19.24 22.2001 19.12 22.8081 18.88C23.4161 18.624 23.9121 18.256 24.2961 17.776C24.6801 17.28 24.8721 16.68 24.8721 15.976L24.4881 14.536C24.4881 15.048 24.3761 15.48 24.1521 15.832C23.9281 16.184 23.6401 16.448 23.2881 16.624C22.9361 16.8 22.5521 16.888 22.1361 16.888C21.8481 16.888 21.5841 16.84 21.3441 16.744C21.1041 16.632 20.9121 16.48 20.7681 16.288C20.6241 16.08 20.5521 15.832 20.5521 15.544ZM18.9441 11.344C19.1041 11.248 19.3601 11.128 19.7121 10.984C20.0641 10.824 20.4721 10.688 20.9361 10.576C21.4161 10.464 21.9041 10.408 22.4001 10.408C22.7361 10.408 23.0321 10.44 23.2881 10.504C23.5601 10.568 23.7841 10.672 23.9601 10.816C24.1361 10.96 24.2641 11.136 24.3441 11.344C24.4401 11.536 24.4881 11.768 24.4881 12.04V19H27.9681V11.224C27.9681 10.456 27.7441 9.808 27.2961 9.28C26.8481 8.752 26.2401 8.352 25.4721 8.08C24.7041 7.792 23.8321 7.648 22.8561 7.648C21.8161 7.648 20.8561 7.784 19.9761 8.056C19.0961 8.328 18.3441 8.616 17.7201 8.92L18.9441 11.344ZM34.2576 7.96H30.6816V19H34.2576V7.96ZM37.4496 11.704L39.0096 8.608C38.8176 8.32 38.5376 8.096 38.1696 7.936C37.8016 7.776 37.4176 7.696 37.0176 7.696C36.4096 7.696 35.8256 7.896 35.2656 8.296C34.7056 8.696 34.2496 9.24 33.8976 9.928C33.5616 10.616 33.3936 11.4 33.3936 12.28L34.2576 13.552C34.2576 13.024 34.3296 12.576 34.4736 12.208C34.6176 11.84 34.8256 11.56 35.0976 11.368C35.3696 11.176 35.6816 11.08 36.0336 11.08C36.3536 11.08 36.6176 11.136 36.8256 11.248C37.0496 11.36 37.2576 11.512 37.4496 11.704ZM39.5493 13.48C39.5493 14.632 39.8213 15.64 40.3652 16.504C40.9093 17.368 41.6613 18.04 42.6213 18.52C43.5813 19 44.6613 19.24 45.8613 19.24C47.0613 19.24 48.1333 19 49.0773 18.52C50.0373 18.04 50.7893 17.368 51.3333 16.504C51.8933 15.64 52.1733 14.632 52.1733 13.48C52.1733 12.312 51.8933 11.296 51.3333 10.432C50.7893 9.568 50.0373 8.896 49.0773 8.416C48.1333 7.936 47.0613 7.696 45.8613 7.696C44.6613 7.696 43.5813 7.936 42.6213 8.416C41.6613 8.896 40.9093 9.568 40.3652 10.432C39.8213 11.296 39.5493 12.312 39.5493 13.48ZM43.2693 13.48C43.2693 12.904 43.3893 12.408 43.6293 11.992C43.8693 11.576 44.1813 11.256 44.5653 11.032C44.9493 10.808 45.3813 10.696 45.8613 10.696C46.3253 10.696 46.7493 10.808 47.1333 11.032C47.5333 11.256 47.8453 11.576 48.0693 11.992C48.3093 12.408 48.4293 12.904 48.4293 13.48C48.4293 14.056 48.3093 14.552 48.0693 14.968C47.8453 15.368 47.5333 15.68 47.1333 15.904C46.7493 16.128 46.3253 16.24 45.8613 16.24C45.3813 16.24 44.9493 16.128 44.5653 15.904C44.1813 15.68 43.8693 15.368 43.6293 14.968C43.3893 14.552 43.2693 14.056 43.2693 13.48ZM57.9295 7.96H54.3535V19H57.9295V7.96ZM61.1215 11.704L62.6815 8.608C62.4895 8.32 62.2095 8.096 61.8415 7.936C61.4735 7.776 61.0895 7.696 60.6895 7.696C60.0815 7.696 59.4975 7.896 58.9375 8.296C58.3775 8.696 57.9215 9.24 57.5695 9.928C57.2335 10.616 57.0655 11.4 57.0655 12.28L57.9295 13.552C57.9295 13.024 58.0015 12.576 58.1455 12.208C58.2895 11.84 58.4975 11.56 58.7695 11.368C59.0415 11.176 59.3535 11.08 59.7055 11.08C60.0255 11.08 60.2895 11.136 60.4975 11.248C60.7215 11.36 60.9295 11.512 61.1215 11.704ZM67.8207 0.279999H64.1967V19H67.8207V0.279999ZM76.8447 13.48C76.8447 12.232 76.5887 11.184 76.0767 10.336C75.5807 9.488 74.9327 8.84 74.1327 8.392C73.3487 7.944 72.5007 7.72 71.5887 7.72C70.6767 7.72 69.8607 7.952 69.1407 8.416C68.4207 8.88 67.8527 9.544 67.4367 10.408C67.0207 11.256 66.8127 12.28 66.8127 13.48C66.8127 14.664 67.0207 15.688 67.4367 16.552C67.8527 17.416 68.4207 18.08 69.1407 18.544C69.8607 19.008 70.6767 19.24 71.5887 19.24C72.5007 19.24 73.3487 19.016 74.1327 18.568C74.9327 18.12 75.5807 17.472 76.0767 16.624C76.5887 15.76 76.8447 14.712 76.8447 13.48ZM73.0287 13.48C73.0287 14.056 72.9087 14.56 72.6687 14.992C72.4287 15.408 72.1087 15.736 71.7087 15.976C71.3087 16.2 70.8687 16.312 70.3887 16.312C69.9727 16.312 69.5647 16.2 69.1647 15.976C68.7807 15.752 68.4607 15.432 68.2047 15.016C67.9487 14.584 67.8207 14.072 67.8207 13.48C67.8207 12.888 67.9487 12.384 68.2047 11.968C68.4607 11.536 68.7807 11.208 69.1647 10.984C69.5647 10.76 69.9727 10.648 70.3887 10.648C70.8687 10.648 71.3087 10.768 71.7087 11.008C72.1087 11.232 72.4287 11.56 72.6687 11.992C72.9087 12.408 73.0287 12.904 73.0287 13.48ZM78.8172 3.808C78.8172 4.384 79.0252 4.856 79.4412 5.224C79.8572 5.592 80.3532 5.776 80.9292 5.776C81.5212 5.776 82.0172 5.592 82.4172 5.224C82.8332 4.856 83.0412 4.384 83.0412 3.808C83.0412 3.232 82.8332 2.768 82.4172 2.416C82.0172 2.048 81.5212 1.864 80.9292 1.864C80.3532 1.864 79.8572 2.048 79.4412 2.416C79.0252 2.768 78.8172 3.232 78.8172 3.808ZM79.1772 7.96V19H82.6812V7.96H79.1772ZM86.266 14.992L84.754 17.392C85.25 17.776 85.786 18.128 86.362 18.448C86.938 18.752 87.562 18.992 88.234 19.168C88.922 19.36 89.666 19.456 90.466 19.456C91.778 19.456 92.794 19.16 93.514 18.568C94.25 17.96 94.618 17.064 94.618 15.88C94.618 15.192 94.466 14.64 94.162 14.224C93.874 13.808 93.482 13.464 92.986 13.192C92.506 12.92 91.978 12.68 91.402 12.472C90.858 12.264 90.394 12.096 90.01 11.968C89.642 11.824 89.354 11.672 89.146 11.512C88.954 11.352 88.858 11.152 88.858 10.912C88.858 10.704 88.938 10.536 89.098 10.408C89.274 10.28 89.53 10.216 89.866 10.216C90.362 10.216 90.906 10.36 91.498 10.648C92.09 10.92 92.618 11.272 93.082 11.704L94.378 9.352C93.946 9.032 93.482 8.752 92.986 8.512C92.506 8.272 91.986 8.08 91.426 7.936C90.882 7.792 90.29 7.72 89.65 7.72C88.85 7.72 88.138 7.84 87.514 8.08C86.906 8.32 86.418 8.672 86.05 9.136C85.698 9.6 85.522 10.168 85.522 10.84C85.522 11.544 85.674 12.12 85.978 12.568C86.282 13.016 86.666 13.376 87.13 13.648C87.61 13.904 88.114 14.128 88.642 14.32C89.234 14.496 89.698 14.664 90.034 14.824C90.386 14.984 90.634 15.152 90.778 15.328C90.922 15.488 90.994 15.688 90.994 15.928C90.994 16.184 90.906 16.392 90.73 16.552C90.554 16.712 90.282 16.792 89.914 16.792C89.658 16.792 89.354 16.744 89.002 16.648C88.65 16.536 88.242 16.352 87.778 16.096C87.33 15.824 86.826 15.456 86.266 14.992Z" fill="#0D1E70"/>
</svg>
