<svg id="a4743b94-9af2-45be-b36e-6b637a76385a" data-name="Layer 1" xmlns="http://www.w3.org/2000/svg" viewBox="0 0 94.62 87.83"><defs><style>.fd4816de-3484-44b9-8548-1e67a57c924b{fill:#0d1e70;}</style></defs><path class="fd4816de-3484-44b9-8548-1e67a57c924b" d="M35.1,50.35H80.26a4.86,4.86,0,0,0,4.79-4l5.23-31a2.44,2.44,0,0,0-2.41-2.86h-59l-1.36-6a3.12,3.12,0,0,0-3.08-2.54H7.9a3.14,3.14,0,1,0,0,6.27h14l.64,3.32h-.27L28.88,49l-2.36,5.91a7.92,7.92,0,0,0,7.36,10.87H82.4a3.14,3.14,0,1,0,0-6.27H33.88a1.66,1.66,0,0,1-1.54-2.27Z"/><path class="fd4816de-3484-44b9-8548-1e67a57c924b" d="M37.06,69.5a6.69,6.69,0,1,0,6.68,6.68A6.68,6.68,0,0,0,37.06,69.5Z"/><path class="fd4816de-3484-44b9-8548-1e67a57c924b" d="M76,69.5a6.69,6.69,0,1,0,6.68,6.68A6.68,6.68,0,0,0,76,69.5Z"/></svg>