<svg width="26" height="26" viewBox="0 0 26 26" fill="none" xmlns="http://www.w3.org/2000/svg">
<path d="M1 1.05396H3.39521L6.58084 15.9282C6.6977 16.4729 7.0008 16.9599 7.43798 17.3053C7.87515 17.6507 8.41905 17.8328 8.97605 17.8204H20.6886C21.2337 17.8195 21.7623 17.6327 22.1869 17.2909C22.6115 16.949 22.9068 16.4726 23.024 15.9402L25 7.04198H4.67665M9.32335 23.7486C9.32335 24.41 8.78717 24.9462 8.12575 24.9462C7.46433 24.9462 6.92814 24.41 6.92814 23.7486C6.92814 23.0871 7.46433 22.551 8.12575 22.551C8.78717 22.551 9.32335 23.0871 9.32335 23.7486ZM22.497 23.7486C22.497 24.41 21.9608 24.9462 21.2994 24.9462C20.638 24.9462 20.1018 24.41 20.1018 23.7486C20.1018 23.0871 20.638 22.551 21.2994 22.551C21.9608 22.551 22.497 23.0871 22.497 23.7486Z" stroke="#0D1E70" stroke-width="2" stroke-linecap="round" stroke-linejoin="round"/>
</svg>
