<svg id="a5c32711-df30-4a14-a712-5cf587e8f85b" data-name="Layer 1" xmlns="http://www.w3.org/2000/svg" viewBox="0 0 70.93 49.69"><defs><style>.bacce38a-67c6-4cb9-8eb9-841d0cf457f7{fill:none;stroke:#0d1e70;stroke-linecap:round;stroke-linejoin:round;stroke-width:3px;}.a58cb817-f98c-474e-a3a9-027a4e99caa9{fill:#0d1e70;}.aa94af19-3f0e-444e-8a15-3d5465215e9b{fill:#fff;}</style></defs><rect class="bacce38a-67c6-4cb9-8eb9-841d0cf457f7" x="3.3" y="3.08" width="64.26" height="43.02" rx="1.65"/><circle class="a58cb817-f98c-474e-a3a9-027a4e99caa9" cx="36.34" cy="24.48" r="13.58"/><path class="aa94af19-3f0e-444e-8a15-3d5465215e9b" d="M42.3,17.15H38.12a.12.12,0,0,0-.08.2,4.14,4.14,0,0,1,1.32,2.55.12.12,0,0,0,.11.1H42.3a.11.11,0,0,1,.12.11v1.17a.12.12,0,0,1-.12.12H39.5a.12.12,0,0,0-.11.1c-.31,2.72-2.46,4.47-5.85,4.66a.11.11,0,0,0-.08.19C35.54,28.53,37.8,31.23,40,34a.12.12,0,0,1-.09.19H37.56a.11.11,0,0,1-.09,0c-2.16-2.59-4.18-5-6.77-7.77a.12.12,0,0,1,0-.08V24.69a.12.12,0,0,1,.12-.11H32.2c2.95,0,4.56-1.2,4.81-3a.11.11,0,0,0-.11-.13H30.78a.13.13,0,0,1-.12-.12V20.11a.12.12,0,0,1,.12-.11h6a.12.12,0,0,0,.12-.15c-.45-1.52-1.91-2.28-4.26-2.28H30.78a.12.12,0,0,1-.12-.11V15.87a.12.12,0,0,1,.12-.11H42.3a.11.11,0,0,1,.12.11V17A.11.11,0,0,1,42.3,17.15Z"/></svg>