<svg id="a56c568d-7c00-4d76-8754-423156c77cc6" data-name="Layer 1" xmlns="http://www.w3.org/2000/svg" viewBox="0 0 80.1 71.56"><defs><style>.b3803c05-293b-4a6b-800b-1c7735732490{fill:#e36000;}</style></defs><path class="b3803c05-293b-4a6b-800b-1c7735732490" d="M77,62.35,44.27,5.71a4.57,4.57,0,0,0-7.91,0L3.66,62.35a4.57,4.57,0,0,0,4,6.85H73A4.57,4.57,0,0,0,77,62.35ZM40.31,59.26a4.2,4.2,0,1,1,4.2-4.2A4.2,4.2,0,0,1,40.31,59.26Zm-.47-37.45a4.19,4.19,0,0,1,4.64,4.63L42.13,47.27a1.83,1.83,0,0,1-3.63,0L36.15,26.44A4.18,4.18,0,0,1,39.84,21.81Z"/></svg>