<svg width="16" height="17" viewBox="0 0 16 17" fill="none" xmlns="http://www.w3.org/2000/svg">
<g clip-path="url(#clip0_868_28)">
<path d="M14.6668 8.34862V8.96196C14.666 10.3996 14.2005 11.7984 13.3397 12.9498C12.4789 14.1013 11.269 14.9436 9.8904 15.3512C8.51178 15.7588 7.03834 15.7099 5.68981 15.2117C4.34128 14.7135 3.18993 13.7927 2.40747 12.5867C1.62501 11.3806 1.25336 9.954 1.34795 8.5195C1.44254 7.085 1.9983 5.71951 2.93235 4.62667C3.8664 3.53384 5.12869 2.77221 6.53096 2.45539C7.93322 2.13856 9.40034 2.28351 10.7135 2.86862" stroke="#068922" stroke-width="2" stroke-linecap="round" stroke-linejoin="round"/>
<path d="M14.6667 3.6286L8 10.3019L6 8.30193" stroke="#068922" stroke-width="2" stroke-linecap="round" stroke-linejoin="round"/>
</g>
<defs>
<clipPath id="clip0_868_28">
<rect width="16" height="16" fill="white" transform="translate(0 0.961945)"/>
</clipPath>
</defs>
</svg>
