<svg width="14" height="14" viewBox="0 0 14 14" fill="none" xmlns="http://www.w3.org/2000/svg">
<path d="M1.16675 1.16663V4.49771M1.16675 4.49771H4.49784M1.16675 4.49771L3.1654 2.69893C4.16807 1.80329 5.44265 1.27062 6.78445 1.18646C8.12624 1.1023 9.45739 1.47153 10.5641 2.23486C11.6708 2.99819 12.4889 4.11132 12.8869 5.39549C13.285 6.67965 13.2399 8.06032 12.7589 9.31577C12.2779 10.5712 11.3889 11.6286 10.2348 12.3181C9.0806 13.0076 7.7282 13.2892 6.39475 13.1176C5.0613 12.9461 3.8242 12.3314 2.88211 11.3722C1.94003 10.4131 1.34763 9.16511 1.20006 7.8288" stroke="white" stroke-width="1.5" stroke-linecap="round" stroke-linejoin="round"/>
</svg>
