<svg width="134" height="22" viewBox="0 0 134 22" fill="none" xmlns="http://www.w3.org/2000/svg">
<path d="M11 2.21606L13.781 7.85006L20 8.75906L15.5 13.1421L16.562 19.3341L11 16.4091L5.438 19.3341L6.5 13.1421L2 8.75906L8.219 7.85006L11 2.21606Z" fill="#FB7946"/>
<path d="M39 2.21606L41.781 7.85006L48 8.75906L43.5 13.1421L44.562 19.3341L39 16.4091L33.438 19.3341L34.5 13.1421L30 8.75906L36.219 7.85006L39 2.21606Z" fill="#FB7946"/>
<path d="M67 2.21606L69.781 7.85006L76 8.75906L71.5 13.1421L72.562 19.3341L67 16.4091L61.438 19.3341L62.5 13.1421L58 8.75906L64.219 7.85006L67 2.21606Z" fill="#FB7946"/>
<path d="M95 2.21606L97.781 7.85006L104 8.75906L99.5 13.1421L100.562 19.3341L95 16.4091L89.438 19.3341L90.5 13.1421L86 8.75906L92.219 7.85006L95 2.21606Z" fill="#FB7946"/>
<path d="M123 2.21606L125.781 7.85006L132 8.75906L127.5 13.1421L128.562 19.3341L123 16.4091L117.438 19.3341L118.5 13.1421L114 8.75906L120.219 7.85006L123 2.21606Z" stroke="#DFDFDF" stroke-width="2" stroke-linecap="round" stroke-linejoin="round"/>
</svg>
