<svg width="16" height="28" viewBox="0 0 16 28" fill="none" xmlns="http://www.w3.org/2000/svg">
<path d="M13.7112 6.37623L13.7112 6.37624C12.2249 7.21548 10.7702 8.21903 9.63768 9.6571C8.95644 10.5221 8.4573 11.5146 8.29563 12.714L8.2087 13.3588L8.83482 13.5359C8.86254 13.5437 8.8934 13.5526 8.92627 13.5621C9.01074 13.5864 9.10856 13.6146 9.20091 13.6387L9.20105 13.6387C11.8348 14.3253 13.6493 15.8616 14.4863 18.3994C15.5187 21.5297 14.2152 25.1035 11.097 26.5021C8.96388 27.4587 6.84535 27.2898 4.88829 26.0199C2.12466 24.2265 0.875948 21.6104 0.913411 18.2819L0.913412 18.2818C0.935373 16.3244 1.26437 14.4351 1.95177 12.6161C2.75755 10.484 3.99927 8.61937 5.59013 6.96577L5.59016 6.96575C7.67141 4.80223 10.1509 3.17052 12.8507 1.79073C13.0249 2.12051 13.199 2.45041 13.3732 2.78036C13.8961 3.77086 14.4193 4.76189 14.9438 5.75209C14.5367 5.94542 14.1098 6.15119 13.7112 6.37623Z" stroke="#FA4C06" stroke-opacity="0.5" stroke-width="1.5"/>
</svg>
