<svg width="24" height="24" viewBox="0 0 24 24" fill="none" xmlns="http://www.w3.org/2000/svg">
<g filter="url(#filter0_d_630:110)">
<path d="M2 12C2 6.47715 6.47715 2 12 2C17.5228 2 22 6.47715 22 12C22 17.5228 17.5228 22 12 22C6.47715 22 2 17.5228 2 12Z" fill="#F4F4F4"/>
</g>
<path d="M12.9265 12.0732L13.0054 12L12.9265 11.9267L9.17503 8.44431C8.81634 8.11135 8.81665 7.5436 9.17571 7.21103C9.49814 6.91237 9.99618 6.91237 10.3186 7.21103L14.776 11.3397C15.1606 11.6959 15.1606 12.304 14.776 12.6602L10.3186 16.7889C9.99618 17.0875 9.49814 17.0875 9.17571 16.7889C8.81665 16.4563 8.81634 15.8886 9.17504 15.5556L12.9265 12.0732Z" fill="black" stroke="#ECEEF4" stroke-width="0.2"/>
<defs>
<filter id="filter0_d_630:110" x="0" y="0" width="24" height="24" filterUnits="userSpaceOnUse" color-interpolation-filters="sRGB">
<feFlood flood-opacity="0" result="BackgroundImageFix"/>
<feColorMatrix in="SourceAlpha" type="matrix" values="0 0 0 0 0 0 0 0 0 0 0 0 0 0 0 0 0 0 127 0" result="hardAlpha"/>
<feOffset/>
<feGaussianBlur stdDeviation="1"/>
<feColorMatrix type="matrix" values="0 0 0 0 0 0 0 0 0 0 0 0 0 0 0 0 0 0 0.25 0"/>
<feBlend mode="normal" in2="BackgroundImageFix" result="effect1_dropShadow_630:110"/>
<feBlend mode="normal" in="SourceGraphic" in2="effect1_dropShadow_630:110" result="shape"/>
</filter>
</defs>
</svg>
