<svg width="16" height="18" viewBox="0 0 16 18" fill="none" xmlns="http://www.w3.org/2000/svg">
<path d="M9.46094 13.9375H10.2578C10.457 13.9375 10.6562 13.7715 10.6562 13.5391V6.36719C10.6562 6.16797 10.457 5.96875 10.2578 5.96875H9.46094C9.22852 5.96875 9.0625 6.16797 9.0625 6.36719V13.5391C9.0625 13.7715 9.22852 13.9375 9.46094 13.9375ZM14.9062 2.78125H12.1504L11.0215 0.921875C10.7559 0.457031 10.2246 0.125 9.66016 0.125H6.30664C5.74219 0.125 5.21094 0.457031 4.94531 0.921875L3.81641 2.78125H1.09375C0.794922 2.78125 0.5625 3.04688 0.5625 3.3125V3.84375C0.5625 4.14258 0.794922 4.375 1.09375 4.375H1.625V15.5312C1.625 16.4277 2.32227 17.125 3.21875 17.125H12.7812C13.6445 17.125 14.375 16.4277 14.375 15.5312V4.375H14.9062C15.1719 4.375 15.4375 4.14258 15.4375 3.84375V3.3125C15.4375 3.04688 15.1719 2.78125 14.9062 2.78125ZM6.24023 1.81836C6.27344 1.78516 6.33984 1.71875 6.40625 1.71875C6.40625 1.71875 6.40625 1.71875 6.43945 1.71875H9.56055C9.62695 1.71875 9.69336 1.78516 9.72656 1.81836L10.291 2.78125H5.67578L6.24023 1.81836ZM12.7812 15.5312H3.21875V4.375H12.7812V15.5312ZM5.74219 13.9375H6.53906C6.73828 13.9375 6.9375 13.7715 6.9375 13.5391V6.36719C6.9375 6.16797 6.73828 5.96875 6.53906 5.96875H5.74219C5.50977 5.96875 5.34375 6.16797 5.34375 6.36719V13.5391C5.34375 13.7715 5.50977 13.9375 5.74219 13.9375Z" fill="#495057"/>
</svg>
