<svg width="20" height="19" viewBox="0 0 20 19" fill="#0D1E70" xmlns="http://www.w3.org/2000/svg">
<path d="M17.705 15.8421L17.7062 15.8408C19.3982 14.1489 19.6018 11.2032 17.2832 8.83827L10 1.55512L2.71683 8.83829C0.398177 11.2032 0.601812 14.1489 2.29375 15.8408L2.29498 15.8421C2.70336 16.2519 3.18862 16.577 3.72293 16.7989C4.25724 17.0207 4.83009 17.1349 5.40863 17.1349C5.98717 17.1349 6.56002 17.0207 7.09433 16.7989C7.62793 16.5773 8.11262 16.2527 8.52066 15.8437C8.5212 15.8431 8.52174 15.8426 8.52227 15.8421L9.28835 15.066L10 14.3451L10.7117 15.066L11.4777 15.8421C11.4783 15.8426 11.4788 15.8431 11.4793 15.8437C11.8874 16.2527 12.3721 16.5773 12.9057 16.7989C13.44 17.0207 14.0128 17.1349 14.5914 17.1349C15.1699 17.1349 15.7428 17.0207 16.2771 16.7989C16.8114 16.577 17.2966 16.2519 17.705 15.8421Z" stroke="#111E6C" stroke-width="2"/>
</svg>
