<svg xmlns="http://www.w3.org/2000/svg" width="32" height="32"><style>.st0{fill:#717171}</style><path class="st0" d="M29.9 14.3c-.2-.8-1-1.4-1.8-1.4-1 0-1.9-.8-1.9-1.9 0-.5.2-1.1.6-1.4.7-.6.8-1.6.2-2.3-.7-.8-1.4-1.6-2.2-2.2-.7-.6-1.7-.5-2.4.2-.5.5-1.4.7-2.1.4-.7-.3-1.2-1-1.1-1.8.1-.9-.6-1.7-1.5-1.8-1-.1-2.1-.1-3.2 0-.9.1-1.6.9-1.5 1.8 0 .8-.4 1.5-1.2 1.8-.7.3-1.6.1-2.1-.5-.6-.7-1.7-.8-2.4-.2-.8.6-1.6 1.4-2.2 2.2-.6.7-.5 1.8.1 2.4.6.5.8 1.4.5 2.1-.3.7-1.1 1.2-1.9 1.1-.9-.1-1.7.6-1.8 1.5-.1 1.1-.1 2.1 0 3.2v.1c.2.8 1 1.4 1.8 1.4s1.4.5 1.7 1.2c.5.8.3 1.6-.3 2.2-.7.6-.8 1.6-.2 2.3.7.8 1.4 1.6 2.2 2.2.7.6 1.7.5 2.4-.2.6-.6 1.4-.8 2.1-.5.7.3 1.2 1 1.1 1.8-.1.9.6 1.7 1.5 1.8 1 .1 2.1.1 3.2 0 .9-.1 1.6-.9 1.5-1.8 0-.8.4-1.5 1.2-1.8.7-.3 1.6-.1 2.1.5.6.6 1.6.7 2.3.2.8-.7 1.6-1.4 2.3-2.2.6-.7.5-1.7-.2-2.4-.6-.5-.8-1.4-.5-2.1.3-.7 1-1.1 1.8-1.2h.1c.9 0 1.7-.6 1.8-1.5.1-1.1.1-2.1 0-3.2zm-1.9.4c.1.9.1 1.8 0 2.7 0-.1.1-.3.3-.2h-.2c-1.6 0-3 .9-3.6 2.4-.6 1.5-.2 3.3 1 4.4-.1-.1-.1-.3 0-.4-.6.7-1.2 1.4-1.9 1.9.1-.1.3-.1.4 0a3.87 3.87 0 0 0-4.3-1c-1.5.6-2.5 2.1-2.4 3.8 0-.1.1-.3.2-.3-.9.1-1.8.1-2.7 0 .1 0 .3.1.2.3.1-1.6-.9-3.2-2.4-3.8-1.5-.6-3.2-.2-4.4 1 .1-.1.2-.1.4 0-.7-.6-1.3-1.2-1.9-1.9.1.1.1.3 0 .4 1.2-1.1 1.6-2.8 1-4.3-.6-1.5-2-2.4-3.6-2.4 0 0 .1 0 .1.1v.1c-.1-.9-.1-1.8 0-2.7 0 .1-.2.3-.3.2 1.6.1 3.1-.9 3.8-2.3.6-1.5.3-3.3-1-4.4.1.1.1.3 0 .4.6-.7 1.2-1.4 1.9-1.9-.1.1-.3.1-.4 0 1.1 1.2 2.8 1.6 4.3 1 1.5-.9 2.5-2.4 2.4-4 0 .1-.1.3-.2.3.9-.1 1.8-.1 2.7 0-.1 0-.3-.1-.2-.3-.1 1.6.9 3.2 2.4 3.8 1.5.6 3.3.2 4.4-1-.1.1-.2.1-.4 0 .7.6 1.3 1.2 1.9 1.9-.1-.1-.1-.3 0-.4-1.6 1.4-1.7 3.9-.3 5.5.7.8 1.8 1.3 2.9 1.3-.1 0-.1 0-.1-.1v-.1z"/><path class="st0" d="M16 22c-3.3 0-6-2.7-6-6s2.7-6 6-6 6 2.7 6 6-2.7 6-6 6zm0-2c2.2 0 4-1.8 4-4s-1.8-4-4-4-4 1.8-4 4 1.8 4 4 4z"/></svg>