<svg id="a644d26a-3dae-4705-bacb-134ff4a3425e" data-name="Layer 1" xmlns="http://www.w3.org/2000/svg" viewBox="0 0 97.47 72.74"><defs><style>.a296234f-750f-4ed5-bbda-37221da251da{fill:#b0b5c1;}.bcfe4fa5-3acc-4653-ae05-aae8d9e00137{fill:#068922;}.b4714dc7-718d-49b8-bdb8-4fda87810747{fill:#fff;}</style></defs><path class="a296234f-750f-4ed5-bbda-37221da251da" d="M89.07,22.62c-.37-2.15-3.22-1.69-4.6-1.54a12,12,0,0,0-2.68.62c-.19.06-1.23.41-2,.73l-.12-.29h0v0h0L74.32,9a9.25,9.25,0,0,0-2.1-3.16A11.88,11.88,0,0,0,64,2.52H30.25A11.88,11.88,0,0,0,22,5.86,9.25,9.25,0,0,0,19.94,9L14.57,22.11h0v0h0l-.12.29c-.73-.32-1.77-.67-2-.73a12,12,0,0,0-2.68-.62c-1.38-.15-4.23-.61-4.6,1.54a4.71,4.71,0,0,0,.58,3.54C6.62,27.34,8.26,28,10.66,28l1.07-.12A25.4,25.4,0,0,1,10.16,30l-.34.4A9.31,9.31,0,0,0,7.69,36.3V62.78c0,2.67,1.35,4.85,3,4.85h7.16c1.66,0,3-2.18,3-4.85V57.61H73.37v5.17c0,2.67,1.36,4.85,3,4.85h7.16c1.67,0,3-2.18,3-4.85V36.3a9.31,9.31,0,0,0-2.13-5.88L84.1,30a25.4,25.4,0,0,1-1.57-2.13L83.6,28c2.4-.05,4-.67,4.89-1.85A4.71,4.71,0,0,0,89.07,22.62ZM28.31,42.37a2,2,0,0,1-.85,1.35,2.06,2.06,0,0,1-1.22.39l-.38,0a33.35,33.35,0,0,1-8-2.31,7.33,7.33,0,0,1-3.35-2.71,3.25,3.25,0,0,1-.19-2.82,2.29,2.29,0,0,1,2.49-1.39l9.12,1.43a2.74,2.74,0,0,1,1.87,1.13C28.69,38.72,28.57,40.83,28.31,42.37ZM17.92,24.21l5.42-13.34,0-.07a5.27,5.27,0,0,1,1.14-1.73,8.27,8.27,0,0,1,5.73-2.3H64a8.23,8.23,0,0,1,5.72,2.3,5.14,5.14,0,0,1,1.15,1.73l0,.07,5.42,13.34c-8.61-.6-18.69-.91-29.21-.91S26.53,23.61,17.92,24.21ZM79.8,39.06a7.33,7.33,0,0,1-3.35,2.71,33.35,33.35,0,0,1-8,2.31l-.38,0a2.06,2.06,0,0,1-1.22-.39A2,2,0,0,1,66,42.37c-.26-1.54-.38-3.65.56-5a2.74,2.74,0,0,1,1.87-1.13l9.12-1.43A2.29,2.29,0,0,1,80,36.24,3.25,3.25,0,0,1,79.8,39.06Z"/><circle class="bcfe4fa5-3acc-4653-ae05-aae8d9e00137" cx="75.28" cy="52.06" r="18.12"/><polygon class="b4714dc7-718d-49b8-bdb8-4fda87810747" points="72.09 62.83 63.24 53.98 66.55 50.68 72.09 56.22 85.2 43.12 88.5 46.42 72.09 62.83"/></svg>