<svg width="23" height="25" viewBox="0 0 23 25" fill="none" xmlns="http://www.w3.org/2000/svg">
<path fill-rule="evenodd" clip-rule="evenodd" d="M-1 21.287C-1 15.318 -1 9.34948 -1 3.38048C-0.9815 3.31398 -0.954 3.24848 -0.9465 3.18098C-0.794 1.84348 0.208 0.730985 1.5265 0.440485C1.699 0.402485 1.873 0.369484 2.047 0.333984C8.016 0.333984 13.9845 0.333984 19.9535 0.333984C20.02 0.352484 20.0855 0.379985 20.1525 0.387485C21.489 0.537985 22.6025 1.54098 22.8935 2.85998C22.9315 3.03298 22.965 3.20748 23 3.38098C23 9.34998 23 15.3185 23 21.2875C22.9815 21.354 22.954 21.4195 22.9465 21.4875C22.794 22.8255 21.7925 23.9365 20.474 24.2275C20.301 24.2655 20.1275 24.299 19.9535 24.334C18.188 24.334 16.422 24.334 14.6565 24.334C14.66 21.5305 14.6635 18.7255 14.6675 15.922C14.6675 15.878 14.6825 15.834 14.692 15.7825C14.773 15.7785 14.842 15.7725 14.911 15.7725C15.7775 15.772 16.645 15.7735 17.5115 15.7715C17.904 15.7705 18.0895 15.625 18.142 15.2325C18.258 14.36 18.366 13.4865 18.461 12.611C18.51 12.16 18.266 11.913 17.7985 11.911C16.83 11.907 15.8615 11.9055 14.8925 11.9125C14.712 11.9135 14.6445 11.86 14.6475 11.6735C14.6595 10.8925 14.6505 10.111 14.6675 9.33048C14.6865 8.48348 15.0885 8.02098 15.934 7.93698C16.5145 7.87948 17.1035 7.90348 17.6885 7.89248C18.1235 7.88398 18.3555 7.68148 18.3625 7.25748C18.373 6.53148 18.3735 5.80448 18.3615 5.07848C18.355 4.69048 18.1495 4.45698 17.7735 4.45948C16.7285 4.46698 15.675 4.42848 14.6405 4.54798C12.375 4.80948 11.0485 6.45948 10.9005 8.63698C10.833 9.63248 10.8585 10.635 10.8555 11.634C10.855 11.8425 10.8055 11.919 10.5845 11.9135C9.991 11.899 9.397 11.9075 8.8035 11.9095C8.522 11.9105 8.264 11.979 8.1565 12.2705C8.1065 12.4045 8.1065 12.562 8.1065 12.709C8.109 13.522 8.1175 14.334 8.125 15.1465C8.129 15.5695 8.3325 15.77 8.763 15.7715C9.341 15.7735 9.919 15.7695 10.497 15.7735C10.8615 15.7765 10.8675 15.6905 10.8665 16.133C10.8615 18.3205 10.856 20.507 10.853 22.6945C10.852 23.241 10.857 23.7875 10.8595 24.334C7.922 24.334 4.9845 24.334 2.047 24.334C1.9805 24.3155 1.9155 24.288 1.848 24.2805C0.512 24.13 -0.602 23.127 -0.893 21.8085C-0.9315 21.635 -0.9645 21.461 -1 21.287Z" fill="white"/>
</svg>
