<svg width="20" height="20" viewBox="0 0 20 20" fill="none" xmlns="http://www.w3.org/2000/svg">
<path d="M7.36704 4.4179C7.55027 4.60483 7.6529 4.85615 7.6529 5.1179C7.6529 5.37965 7.55027 5.63097 7.36704 5.8179L5.76704 7.4179C5.58011 7.60113 5.32879 7.70376 5.06704 7.70376C4.80529 7.70376 4.55397 7.60113 4.36704 7.4179L0.59704 3.6479C0.0942059 4.75909 -0.0580444 5.99713 0.160582 7.19705C0.379208 8.39696 0.958326 9.50174 1.82076 10.3642C2.6832 11.2266 3.78798 11.8057 4.98789 12.0244C6.18781 12.243 7.42585 12.0907 8.53704 11.5879L15.447 18.4979C15.8449 18.8957 16.3844 19.1192 16.947 19.1192C17.5096 19.1192 18.0492 18.8957 18.447 18.4979C18.8449 18.1001 19.0684 17.5605 19.0684 16.9979C19.0684 16.4353 18.8449 15.8957 18.447 15.4979L11.537 8.5879C12.0399 7.47671 12.1921 6.23867 11.9735 5.03875C11.7549 3.83884 11.1758 2.73406 10.3133 1.87162C9.45088 1.00919 8.3461 0.430069 7.14618 0.211442C5.94627 -0.00718464 4.70823 0.145064 3.59704 0.6479L7.35704 4.4079L7.36704 4.4179Z" fill="#0D1E70"/>
</svg>
