<svg width="223" height="42" viewBox="0 0 223 42" fill="none" xmlns="http://www.w3.org/2000/svg">
<path d="M18.2256 9.03418C16.6611 9.03418 15.2725 9.3418 14.0596 9.95703C12.8643 10.5547 11.8535 11.4248 11.0273 12.5674C10.2188 13.71 9.60352 15.0898 9.18164 16.707C8.75977 18.3242 8.54883 20.1436 8.54883 22.165C8.54883 24.8896 8.88281 27.2188 9.55078 29.1523C10.2363 31.0684 11.291 32.5361 12.7148 33.5557C14.1387 34.5576 15.9756 35.0586 18.2256 35.0586C19.79 35.0586 21.3545 34.8828 22.9189 34.5312C24.501 34.1797 26.2148 33.6787 28.0605 33.0283V39.8838C26.3555 40.5869 24.6768 41.0879 23.0244 41.3867C21.3721 41.7031 19.5176 41.8613 17.4609 41.8613C13.4883 41.8613 10.2188 41.0439 7.65234 39.4092C5.10352 37.7568 3.21387 35.4541 1.9834 32.501C0.75293 29.5303 0.137695 26.0674 0.137695 22.1123C0.137695 19.1943 0.533203 16.5225 1.32422 14.0967C2.11523 11.6709 3.27539 9.57031 4.80469 7.79492C6.33398 6.01953 8.22363 4.64844 10.4736 3.68164C12.7236 2.71484 15.3076 2.23145 18.2256 2.23145C20.1416 2.23145 22.0576 2.47754 23.9736 2.96973C25.9072 3.44434 27.7529 4.10352 29.5107 4.94727L26.874 11.5918C25.4326 10.9062 23.9824 10.3086 22.5234 9.79883C21.0645 9.28906 19.6318 9.03418 18.2256 9.03418ZM47.7305 11.249C51.6855 11.249 54.7178 12.1104 56.8271 13.833C58.9365 15.5557 59.9912 18.1748 59.9912 21.6904V41.334H54.375L52.8193 37.3262H52.6084C51.7646 38.3809 50.9033 39.2422 50.0244 39.9102C49.1455 40.5781 48.1348 41.0703 46.9922 41.3867C45.8496 41.7031 44.4609 41.8613 42.8262 41.8613C41.0859 41.8613 39.5215 41.5273 38.1328 40.8594C36.7617 40.1914 35.6807 39.1719 34.8896 37.8008C34.0986 36.4121 33.7031 34.6543 33.7031 32.5273C33.7031 29.3984 34.8018 27.0957 36.999 25.6191C39.1963 24.125 42.4922 23.2988 46.8867 23.1406L52.002 22.9824V21.6904C52.002 20.1436 51.5977 19.0098 50.7891 18.2891C49.9805 17.5684 48.8555 17.208 47.4141 17.208C45.9902 17.208 44.5928 17.4102 43.2217 17.8145C41.8506 18.2188 40.4795 18.7285 39.1084 19.3438L36.4453 13.9121C38.0098 13.0859 39.7588 12.4355 41.6924 11.9609C43.6436 11.4863 45.6562 11.249 47.7305 11.249ZM52.002 27.6758L48.8906 27.7812C46.2891 27.8516 44.4785 28.3174 43.459 29.1787C42.457 30.04 41.9561 31.1738 41.9561 32.5801C41.9561 33.8105 42.3164 34.6895 43.0371 35.2168C43.7578 35.7266 44.6982 35.9814 45.8584 35.9814C47.5811 35.9814 49.0312 35.4717 50.209 34.4521C51.4043 33.4326 52.002 31.9824 52.002 30.1016V27.6758ZM84.75 11.3018C85.1543 11.3018 85.6201 11.3281 86.1475 11.3809C86.6924 11.416 87.1318 11.4687 87.4658 11.5391L86.8594 19.0801C86.5957 18.9922 86.2178 18.9307 85.7256 18.8955C85.251 18.8428 84.8379 18.8164 84.4863 18.8164C83.4492 18.8164 82.4385 18.9482 81.4541 19.2119C80.4873 19.4756 79.6172 19.9062 78.8438 20.5039C78.0703 21.084 77.4551 21.8574 76.998 22.8242C76.5586 23.7734 76.3389 24.9424 76.3389 26.3311V41.334H68.2969V11.8555H74.3877L75.5742 16.8125H75.9697C76.5498 15.8105 77.2705 14.8965 78.1318 14.0703C79.0107 13.2266 80.0039 12.5586 81.1113 12.0664C82.2363 11.5566 83.4492 11.3018 84.75 11.3018ZM119.607 26.542C119.607 29.0029 119.273 31.1826 118.605 33.0811C117.955 34.9795 116.997 36.5879 115.731 37.9062C114.483 39.207 112.972 40.1914 111.196 40.8594C109.438 41.5273 107.452 41.8613 105.237 41.8613C103.163 41.8613 101.256 41.5273 99.5156 40.8594C97.793 40.1914 96.29 39.207 95.0068 37.9062C93.7412 36.5879 92.7568 34.9795 92.0537 33.0811C91.3682 31.1826 91.0254 29.0029 91.0254 26.542C91.0254 23.2725 91.6055 20.5039 92.7656 18.2363C93.9258 15.9688 95.5781 14.2461 97.7227 13.0684C99.8672 11.8906 102.425 11.3018 105.396 11.3018C108.155 11.3018 110.599 11.8906 112.726 13.0684C114.87 14.2461 116.549 15.9688 117.762 18.2363C118.992 20.5039 119.607 23.2725 119.607 26.542ZM99.2256 26.542C99.2256 28.4756 99.4365 30.1016 99.8584 31.4199C100.28 32.7383 100.939 33.7314 101.836 34.3994C102.732 35.0674 103.901 35.4014 105.343 35.4014C106.767 35.4014 107.918 35.0674 108.797 34.3994C109.693 33.7314 110.344 32.7383 110.748 31.4199C111.17 30.1016 111.381 28.4756 111.381 26.542C111.381 24.5908 111.17 22.9736 110.748 21.6904C110.344 20.3896 109.693 19.4141 108.797 18.7637C107.9 18.1133 106.731 17.7881 105.29 17.7881C103.163 17.7881 101.616 18.5176 100.649 19.9766C99.7002 21.4355 99.2256 23.624 99.2256 26.542ZM142.705 11.3018C143.109 11.3018 143.575 11.3281 144.103 11.3809C144.647 11.416 145.087 11.4687 145.421 11.5391L144.814 19.0801C144.551 18.9922 144.173 18.9307 143.681 18.8955C143.206 18.8428 142.793 18.8164 142.441 18.8164C141.404 18.8164 140.394 18.9482 139.409 19.2119C138.442 19.4756 137.572 19.9062 136.799 20.5039C136.025 21.084 135.41 21.8574 134.953 22.8242C134.514 23.7734 134.294 24.9424 134.294 26.3311V41.334H126.252V11.8555H132.343L133.529 16.8125H133.925C134.505 15.8105 135.226 14.8965 136.087 14.0703C136.966 13.2266 137.959 12.5586 139.066 12.0664C140.191 11.5566 141.404 11.3018 142.705 11.3018ZM158.815 0.306641V9.85156C158.815 10.959 158.78 12.0576 158.71 13.1475C158.657 14.2373 158.587 15.0811 158.499 15.6787H158.815C159.589 14.4658 160.644 13.4375 161.979 12.5938C163.315 11.7324 165.047 11.3018 167.174 11.3018C170.479 11.3018 173.159 12.5938 175.216 15.1777C177.272 17.7617 178.301 21.5498 178.301 26.542C178.301 29.8994 177.826 32.7207 176.877 35.0059C175.928 37.2734 174.601 38.9873 172.896 40.1475C171.19 41.29 169.213 41.8613 166.963 41.8613C164.801 41.8613 163.096 41.4746 161.848 40.7012C160.6 39.9277 159.589 39.0576 158.815 38.0908H158.262L156.917 41.334H150.773V0.306641H158.815ZM164.59 17.7354C163.184 17.7354 162.067 18.0254 161.241 18.6055C160.415 19.1855 159.809 20.0557 159.422 21.2158C159.053 22.376 158.851 23.8438 158.815 25.6191V26.4893C158.815 29.3545 159.237 31.5518 160.081 33.0811C160.925 34.5928 162.463 35.3486 164.695 35.3486C166.348 35.3486 167.657 34.584 168.624 33.0547C169.608 31.5254 170.101 29.3193 170.101 26.4365C170.101 23.5537 169.608 21.3828 168.624 19.9238C167.64 18.4648 166.295 17.7354 164.59 17.7354ZM192.987 11.8555V41.334H184.945V11.8555H192.987ZM188.979 0.306641C190.175 0.306641 191.203 0.587891 192.064 1.15039C192.926 1.69531 193.356 2.72363 193.356 4.23535C193.356 5.72949 192.926 6.7666 192.064 7.34668C191.203 7.90918 190.175 8.19043 188.979 8.19043C187.767 8.19043 186.729 7.90918 185.868 7.34668C185.024 6.7666 184.603 5.72949 184.603 4.23535C184.603 2.72363 185.024 1.69531 185.868 1.15039C186.729 0.587891 187.767 0.306641 188.979 0.306641ZM222.018 32.5801C222.018 34.584 221.543 36.2803 220.594 37.6689C219.662 39.04 218.265 40.0859 216.401 40.8066C214.538 41.5098 212.218 41.8613 209.44 41.8613C207.384 41.8613 205.617 41.7295 204.141 41.4658C202.682 41.2021 201.205 40.7627 199.711 40.1475V33.5029C201.311 34.2236 203.024 34.8213 204.853 35.2959C206.698 35.7529 208.315 35.9814 209.704 35.9814C211.269 35.9814 212.385 35.7529 213.053 35.2959C213.738 34.8213 214.081 34.2061 214.081 33.4502C214.081 32.958 213.94 32.5186 213.659 32.1318C213.396 31.7275 212.815 31.2793 211.919 30.7871C211.022 30.2773 209.616 29.6182 207.7 28.8096C205.854 28.0361 204.334 27.2539 203.139 26.4629C201.961 25.6719 201.082 24.7402 200.502 23.668C199.939 22.5781 199.658 21.1982 199.658 19.5283C199.658 16.8037 200.713 14.7559 202.822 13.3848C204.949 11.9961 207.788 11.3018 211.339 11.3018C213.167 11.3018 214.907 11.4863 216.56 11.8555C218.229 12.2246 219.943 12.8135 221.701 13.6221L219.275 19.4229C217.816 18.79 216.437 18.2715 215.136 17.8672C213.853 17.4629 212.543 17.2607 211.207 17.2607C210.029 17.2607 209.142 17.4189 208.544 17.7354C207.946 18.0518 207.647 18.5352 207.647 19.1855C207.647 19.6602 207.797 20.082 208.096 20.4512C208.412 20.8203 209.01 21.2334 209.889 21.6904C210.785 22.1299 212.095 22.7012 213.817 23.4043C215.487 24.0898 216.938 24.8105 218.168 25.5664C219.398 26.3047 220.348 27.2275 221.016 28.335C221.684 29.4248 222.018 30.8398 222.018 32.5801Z" fill="white"/>
</svg>
