<svg width="26" height="18" viewBox="0 0 26 18" fill="none" xmlns="http://www.w3.org/2000/svg">
<path d="M15.4 12.6001H9.4M21.4 12.6001H25V8.82011C25.0008 8.53453 24.8998 8.25803 24.715 8.04027C24.5303 7.82252 24.2739 7.6778 23.992 7.63211L17.8 6.60011L14.56 2.28011C14.4482 2.13107 14.3033 2.01011 14.1367 1.92679C13.97 1.84348 13.7863 1.80011 13.6 1.80011H4.888C4.44072 1.79699 4.00148 1.91894 3.61982 2.15217C3.23816 2.38541 2.92927 2.72066 2.728 3.12011L1.768 5.07611C1.26417 6.07764 1.00119 7.18299 1 8.30411V12.6001H3.4M9.4 13.2001C9.4 14.857 8.05685 16.2001 6.4 16.2001C4.74315 16.2001 3.4 14.857 3.4 13.2001C3.4 11.5433 4.74315 10.2001 6.4 10.2001C8.05685 10.2001 9.4 11.5433 9.4 13.2001ZM21.4 13.2001C21.4 14.857 20.0569 16.2001 18.4 16.2001C16.7431 16.2001 15.4 14.857 15.4 13.2001C15.4 11.5433 16.7431 10.2001 18.4 10.2001C20.0569 10.2001 21.4 11.5433 21.4 13.2001Z" stroke="#0D1E70" stroke-width="2" stroke-linecap="round" stroke-linejoin="round"/>
</svg>
