<svg id="b3dc2540-bcfa-48b5-9553-782337afdd06" data-name="Layer 1" xmlns="http://www.w3.org/2000/svg" viewBox="0 0 94.91 92"><defs><style>.a98ff083-9a58-4d09-b54b-fc58f8822447{fill:#068922;}.e8899e5e-b3b1-4c61-9af5-d99dfcb3e495{fill:#fff;}</style></defs><path class="a98ff083-9a58-4d09-b54b-fc58f8822447" d="M80.52,70.58h0a7.62,7.62,0,0,1-8,7.89h0a7.63,7.63,0,0,0-7.27,4.33h0a7.62,7.62,0,0,1-10.76,3.27h0a7.65,7.65,0,0,0-8.45.45h0A7.62,7.62,0,0,1,35,84.42h0a7.61,7.61,0,0,0-7.69-3.52h0a7.63,7.63,0,0,1-8.8-7h0a7.66,7.66,0,0,0-5.17-6.7h0A7.63,7.63,0,0,1,8.77,56.91h0a7.63,7.63,0,0,0-1.46-8.33h0a7.62,7.62,0,0,1,.75-11.22h0a7.61,7.61,0,0,0,2.57-8.06h0a7.63,7.63,0,0,1,5.89-9.58h0a7.63,7.63,0,0,0,6-5.94h0A7.63,7.63,0,0,1,32.21,8h0A7.65,7.65,0,0,0,40.3,5.57h0A7.62,7.62,0,0,1,51.53,5h0a7.65,7.65,0,0,0,8.31,1.58h0a7.63,7.63,0,0,1,10.23,4.69h0a7.63,7.63,0,0,0,6.62,5.26h0a7.61,7.61,0,0,1,6.87,8.9h0A7.66,7.66,0,0,0,87,33.14h0a7.61,7.61,0,0,1,2,11.07h0a7.64,7.64,0,0,0-.57,8.44h0a7.62,7.62,0,0,1-3.42,10.72h0A7.62,7.62,0,0,0,80.52,70.58Z"/><polygon class="e8899e5e-b3b1-4c61-9af5-d99dfcb3e495" points="41.28 62.54 25.91 47.16 31.65 41.42 41.28 51.06 64.06 28.29 69.8 34.02 41.28 62.54"/></svg>