<svg id="b5db4e83-53ec-4e3d-93b9-78b6b97485a4" data-name="Layer 1" xmlns="http://www.w3.org/2000/svg" viewBox="0 0 66.39 65.29"><defs><style>.a7afaf7c-2117-4ff8-a160-6f35d3c8bc50{fill:#0d1e70;stroke:#0d1e70;stroke-miterlimit:10;}</style></defs><path class="a7afaf7c-2117-4ff8-a160-6f35d3c8bc50" d="M61.14,41H58.33a2.8,2.8,0,0,1-2.8-2.8v-14a2.8,2.8,0,0,1,2.8-2.8h2.81A2.81,2.81,0,0,1,64,24.17v14A2.81,2.81,0,0,1,61.14,41ZM58.33,24.17v14h2.81v-14Z"/><path class="a7afaf7c-2117-4ff8-a160-6f35d3c8bc50" d="M38.68,60.1A1.4,1.4,0,0,1,37.31,59a1.42,1.42,0,0,1,1.1-1.66A26.66,26.66,0,0,0,58.52,39.19a1.4,1.4,0,1,1,2.67.84A29.44,29.44,0,0,1,39,60.07,1.27,1.27,0,0,1,38.68,60.1Z"/><path class="a7afaf7c-2117-4ff8-a160-6f35d3c8bc50" d="M59.85,24.17a1.39,1.39,0,0,1-1.33-1,26.68,26.68,0,0,0-50.89,0A1.4,1.4,0,1,1,5,22.35a29.48,29.48,0,0,1,56.24,0,1.4,1.4,0,0,1-.91,1.76A1.65,1.65,0,0,1,59.85,24.17Z"/><path class="a7afaf7c-2117-4ff8-a160-6f35d3c8bc50" d="M7.81,41H5a2.81,2.81,0,0,1-2.8-2.8v-14A2.81,2.81,0,0,1,5,21.37H7.81a2.81,2.81,0,0,1,2.81,2.8v14A2.81,2.81,0,0,1,7.81,41ZM5,24.17v14H7.81v-14Z"/><path class="a7afaf7c-2117-4ff8-a160-6f35d3c8bc50" d="M33.07,63.47c-3.93,0-7-2.16-7-4.91s3.09-4.92,7-4.92,7,2.16,7,4.92S37,63.47,33.07,63.47Zm0-7c-2.41,0-4.21,1.11-4.21,2.11s1.8,2.1,4.21,2.1,4.21-1.11,4.21-2.1S35.48,56.45,33.07,56.45Z"/></svg>