<svg width="20" height="22" viewBox="0 0 20 22" fill="none" xmlns="http://www.w3.org/2000/svg">
<path d="M11.73 20.002C11.5542 20.305 11.3018 20.5566 10.9982 20.7315C10.6946 20.9064 10.3504 20.9984 10 20.9984C9.64962 20.9984 9.30539 20.9064 9.00177 20.7315C8.69816 20.5566 8.44581 20.305 8.27 20.002M16 7.00195C16 5.41065 15.3679 3.88453 14.2426 2.75931C13.1174 1.63409 11.5913 1.00195 10 1.00195C8.4087 1.00195 6.88258 1.63409 5.75736 2.75931C4.63214 3.88453 4 5.41065 4 7.00195C4 14.002 1 16.002 1 16.002H19C19 16.002 16 14.002 16 7.00195Z" stroke="#0D1E70" stroke-width="2" stroke-linecap="round" stroke-linejoin="round"/>
</svg>
