<?xml version="1.0" encoding="utf-8"?>
<!-- Generator: Adobe Illustrator 18.1.1, SVG Export Plug-In . SVG Version: 6.00 Build 0)  -->
<!DOCTYPE svg PUBLIC "-//W3C//DTD SVG 1.1//EN" "http://www.w3.org/Graphics/SVG/1.1/DTD/svg11.dtd">
<svg version="1.1" id="Layer_1" xmlns="http://www.w3.org/2000/svg" xmlns:xlink="http://www.w3.org/1999/xlink" x="0px" y="0px"
	 width="23.55px" height="23.55px" viewBox="0 0 23.55 23.55" style="enable-background:new 0 0 23.55 23.55;" xml:space="preserve"
	>
<style type="text/css">
	.st0{fill:#232F3E;}
</style>
<g>
	<g>
		<g>
			<g>
				<g>
					<path class="st0" d="M17.827,15.186c1.025-1.526,1.624-3.361,1.624-5.337c0-5.293-4.29-9.583-9.583-9.583
						S0.285,4.557,0.285,9.849s4.29,9.583,9.583,9.583c1.976,0,3.811-0.599,5.337-1.624l5.456,5.458l2.623-2.623L17.827,15.186z
						 M15.201,12.646c-0.136,0.258-0.292,0.504-0.462,0.738c-0.018,0.024-0.035,0.047-0.054,0.071
						c-0.344,0.459-0.751,0.866-1.211,1.211c-0.024,0.018-0.047,0.036-0.071,0.054c-0.234,0.171-0.48,0.326-0.738,0.462
						c-0.836,0.439-1.786,0.691-2.796,0.691c-3.327,0-6.024-2.696-6.024-6.024s2.696-6.024,6.024-6.024s6.024,2.696,6.024,6.024
						C15.892,10.86,15.64,11.809,15.201,12.646z"/>
				</g>
			</g>
		</g>
	</g>
</g>
</svg>
