<svg width="24" height="24" viewBox="0 0 24 24" fill="none" xmlns="http://www.w3.org/2000/svg">
<g clip-path="url(#clip0_2712_823)">
<path fill-rule="evenodd" clip-rule="evenodd" d="M-1 20.953C-1 14.984 -1 9.0155 -1 3.0465C-0.9815 2.98 -0.954 2.9145 -0.9465 2.847C-0.794 1.5095 0.208 0.397 1.5265 0.1065C1.699 0.0685001 1.873 0.0355 2.047 0C8.016 0 13.9845 0 19.9535 0C20.02 0.0185 20.0855 0.0460002 20.1525 0.0535002C21.489 0.204 22.6025 1.207 22.8935 2.526C22.9315 2.699 22.965 2.8735 23 3.047C23 9.016 23 14.9845 23 20.9535C22.9815 21.02 22.954 21.0855 22.9465 21.1535C22.794 22.4915 21.7925 23.6025 20.474 23.8935C20.301 23.9315 20.1275 23.965 19.9535 24C18.188 24 16.422 24 14.6565 24C14.66 21.1965 14.6635 18.3915 14.6675 15.588C14.6675 15.544 14.6825 15.5 14.692 15.4485C14.773 15.4445 14.842 15.4385 14.911 15.4385C15.7775 15.438 16.645 15.4395 17.5115 15.4375C17.904 15.4365 18.0895 15.291 18.142 14.8985C18.258 14.026 18.366 13.1525 18.461 12.277C18.51 11.826 18.266 11.579 17.7985 11.577C16.83 11.573 15.8615 11.5715 14.8925 11.5785C14.712 11.5795 14.6445 11.526 14.6475 11.3395C14.6595 10.5585 14.6505 9.777 14.6675 8.9965C14.6865 8.1495 15.0885 7.687 15.934 7.603C16.5145 7.5455 17.1035 7.5695 17.6885 7.5585C18.1235 7.55 18.3555 7.3475 18.3625 6.9235C18.373 6.1975 18.3735 5.4705 18.3615 4.7445C18.355 4.3565 18.1495 4.123 17.7735 4.1255C16.7285 4.133 15.675 4.0945 14.6405 4.214C12.375 4.4755 11.0485 6.1255 10.9005 8.303C10.833 9.2985 10.8585 10.301 10.8555 11.3C10.855 11.5085 10.8055 11.585 10.5845 11.5795C9.991 11.565 9.397 11.5735 8.8035 11.5755C8.522 11.5765 8.264 11.645 8.1565 11.9365C8.1065 12.0705 8.1065 12.228 8.1065 12.375C8.109 13.188 8.1175 14 8.125 14.8125C8.129 15.2355 8.3325 15.436 8.763 15.4375C9.341 15.4395 9.919 15.4355 10.497 15.4395C10.8615 15.4425 10.8675 15.3565 10.8665 15.799C10.8615 17.9865 10.856 20.173 10.853 22.3605C10.852 22.907 10.857 23.4535 10.8595 24C7.922 24 4.9845 24 2.047 24C1.9805 23.9815 1.9155 23.954 1.848 23.9465C0.512 23.796 -0.602 22.793 -0.893 21.4745C-0.9315 21.301 -0.9645 21.127 -1 20.953Z" fill="#0D1E70"/>
</g>
<defs>
<clipPath id="clip0_2712_823">
<rect width="24" height="24" fill="white"/>
</clipPath>
</defs>
</svg>
