<svg width="46" height="14" viewBox="0 0 46 14" fill="none" xmlns="http://www.w3.org/2000/svg">
<g clip-path="url(#clip0_1712_2114)">
<path d="M16.7098 13.7756L18.9992 0.341053H22.6612L20.3701 13.7756H16.7098ZM33.5997 0.630661C32.8743 0.358485 31.7373 0.0664062 30.3178 0.0664062C26.6994 0.0664062 24.1506 1.88846 24.1289 4.49995C24.1084 6.43044 25.9485 7.50734 27.3374 8.14996C28.7629 8.80844 29.242 9.22838 29.2352 9.81645C29.2262 10.7169 28.097 11.1283 27.0445 11.1283C25.5788 11.1283 24.8002 10.9247 23.5976 10.4231L23.1257 10.2097L22.6117 13.2171C23.467 13.5921 25.0487 13.917 26.6908 13.9338C30.5401 13.9338 33.0388 12.1326 33.0674 9.34388C33.0811 7.81561 32.1055 6.65258 29.9928 5.69372C28.7129 5.0723 27.9291 4.65751 27.9374 4.02827C27.9374 3.46985 28.6008 2.87265 30.0344 2.87265C31.2319 2.85412 32.0994 3.11525 32.7752 3.38736L33.1034 3.54246L33.5997 0.630661V0.630661ZM43.0229 0.340847H40.1933C39.3167 0.340847 38.6607 0.580152 38.2757 1.45495L32.8374 13.7667H36.6827C36.6827 13.7667 37.3113 12.1112 37.4535 11.7478C37.8739 11.7478 41.6092 11.7536 42.1434 11.7536C42.2529 12.2239 42.5888 13.7667 42.5888 13.7667H45.9868L43.0229 0.340435V0.340847ZM38.5334 9.01604C38.8362 8.242 39.9924 5.26054 39.9924 5.26054C39.9708 5.29637 40.293 4.48272 40.4779 3.97831L40.7253 5.13667C40.7253 5.13667 41.4266 8.34356 41.5731 9.01604H38.5334ZM13.6011 0.340847L10.016 9.50261L9.63393 7.64075C8.96653 5.49456 6.88712 3.16933 4.5625 2.0052L7.84056 13.7542L11.715 13.7498L17.48 0.34071H13.6011" fill="#0E4595"/>
<path d="M6.67087 0.340363H0.766096L0.71936 0.619883C5.31314 1.73192 8.35279 4.4193 9.61485 7.64802L8.33083 1.47429C8.10916 0.623657 7.46633 0.369804 6.67101 0.340088" fill="#F2AE14"/>
</g>
<defs>
<clipPath id="clip0_1712_2114">
<rect width="45.2941" height="14" fill="white" transform="translate(0.705811)"/>
</clipPath>
</defs>
</svg>
