<svg width="24" height="24" viewBox="0 0 24 24" fill="none" xmlns="http://www.w3.org/2000/svg">
<g clip-path="url(#clip0_2712_868)">
<path d="M17.7589 13.7907C17.7121 13.7683 15.9624 12.9067 15.6515 12.7948C15.5246 12.7492 15.3886 12.7047 15.244 12.7047C15.0077 12.7047 14.8093 12.8225 14.6547 13.0538C14.4799 13.3136 13.9508 13.932 13.7873 14.1168C13.766 14.1412 13.7368 14.1703 13.7194 14.1703C13.7037 14.1703 13.4329 14.0588 13.351 14.0232C11.4741 13.2079 10.0494 11.2473 9.85405 10.9167C9.82616 10.8691 9.82499 10.8476 9.82476 10.8476C9.83161 10.8224 9.89473 10.7591 9.9273 10.7265C10.0226 10.6322 10.1258 10.5079 10.2257 10.3877C10.273 10.3307 10.3204 10.2737 10.3669 10.2199C10.5119 10.0513 10.5764 9.92036 10.6512 9.76872L10.6904 9.68994C10.873 9.32706 10.717 9.02083 10.6666 8.92194C10.6252 8.83919 9.88647 7.05618 9.80792 6.86885C9.61904 6.41683 9.36946 6.20636 9.02263 6.20636C8.99044 6.20636 9.02263 6.20636 8.88766 6.21205C8.72333 6.21898 7.82839 6.3368 7.4327 6.58623C7.01309 6.85078 6.30322 7.69405 6.30322 9.17706C6.30322 10.5118 7.15024 11.772 7.5139 12.2513C7.52294 12.2634 7.53953 12.2879 7.56361 12.3232C8.95631 14.3571 10.6925 15.8644 12.4525 16.5675C14.1469 17.2443 14.9493 17.3226 15.4055 17.3226C15.4055 17.3226 15.4055 17.3226 15.4055 17.3226C15.5972 17.3226 15.7507 17.3075 15.886 17.2942L15.9719 17.286C16.5572 17.2341 17.8436 16.5676 18.1362 15.7545C18.3667 15.114 18.4274 14.4143 18.2741 14.1603C18.169 13.9877 17.988 13.9008 17.7589 13.7907Z" fill="#0D1E70"/>
<path d="M12.2133 0C5.71332 0 0.425213 5.24836 0.425213 11.6995C0.425213 13.786 0.983603 15.8284 2.04139 17.6159L0.0167455 23.5883C-0.0209688 23.6996 0.00708318 23.8227 0.0894468 23.9066C0.148901 23.9673 0.229551 24 0.311914 24C0.343473 24 0.375265 23.9952 0.406278 23.9854L6.63381 22.0064C8.33797 22.917 10.264 23.3976 12.2133 23.3976C18.7127 23.3977 24.0002 18.1498 24.0002 11.6995C24.0002 5.24836 18.7127 0 12.2133 0ZM12.2133 20.9606C10.3791 20.9606 8.60251 20.4309 7.07539 19.4289C7.02404 19.3951 6.96443 19.3778 6.90443 19.3778C6.87272 19.3778 6.84093 19.3826 6.80999 19.3925L3.69038 20.3841L4.69745 17.413C4.73002 17.3169 4.71373 17.2108 4.65373 17.1288C3.49082 15.5398 2.8761 13.6625 2.8761 11.6995C2.8761 6.59221 7.06472 2.43709 12.2132 2.43709C17.361 2.43709 21.5492 6.59221 21.5492 11.6995C21.5493 16.8061 17.3612 20.9606 12.2133 20.9606Z" fill="#0D1E70"/>
</g>
<defs>
<clipPath id="clip0_2712_868">
<rect width="24" height="24" fill="white"/>
</clipPath>
</defs>
</svg>
