<svg width="30" height="19" viewBox="0 0 30 19" fill="none" xmlns="http://www.w3.org/2000/svg">
<g clip-path="url(#clip0_2589_813)">
<path d="M10.5454 2.22021H19.4583V16.7776H10.5454V2.22021Z" fill="#FF5F00"/>
<path d="M11.4633 9.50031C11.4622 8.09857 11.78 6.71494 12.3926 5.45414C13.0052 4.19333 13.8965 3.08839 14.9992 2.22293C13.6335 1.14964 11.9934 0.482216 10.2663 0.296953C8.53923 0.111689 6.79488 0.416056 5.23261 1.17527C3.67034 1.93448 2.35318 3.1179 1.43167 4.59028C0.510165 6.06266 0.0214844 7.7646 0.0214844 9.50158C0.0214844 11.2386 0.510165 12.9405 1.43167 14.4129C2.35318 15.8853 3.67034 17.0687 5.23261 17.8279C6.79488 18.5871 8.53923 18.8915 10.2663 18.7062C11.9934 18.5209 13.6335 17.8535 14.9992 16.7802C13.8962 15.9145 13.0046 14.8091 12.392 13.5479C11.7794 12.2866 11.4618 10.9024 11.4633 9.50027V9.50031Z" fill="#EB001B"/>
<path d="M29.0939 15.2374V14.9392H29.2225V14.8774H28.9165V14.9392H29.0374V15.2375L29.0939 15.2374ZM29.6879 15.2374V14.8775H29.5954L29.4874 15.1346L29.3793 14.8774H29.2868V15.2374H29.3536V14.9649L29.4539 15.1989H29.5234L29.6237 14.9649V15.2374H29.6879Z" fill="#F79E1B"/>
<path d="M29.9786 9.50056C29.9786 11.2377 29.4898 12.9397 28.5681 14.4122C27.6464 15.8846 26.329 17.068 24.7666 17.8271C23.2041 18.5862 21.4596 18.8904 19.7324 18.7048C18.0052 18.5193 16.3651 17.8515 14.9995 16.7779C16.1017 15.9117 16.9928 14.8064 17.6056 13.5456C18.2183 12.2847 18.5367 10.9011 18.5367 9.49925C18.5367 8.09738 18.2183 6.71382 17.6056 5.45295C16.9928 4.19208 16.1017 3.08683 14.9995 2.2206C16.3651 1.14697 18.0052 0.479214 19.7324 0.293681C21.4596 0.108148 23.2041 0.412319 24.7666 1.17142C26.3291 1.93053 27.6464 3.11394 28.5681 4.58638C29.4898 6.05882 29.9786 7.76088 29.9786 9.49799V9.50056Z" fill="#F79E1B"/>
</g>
<defs>
<clipPath id="clip0_2589_813">
<rect width="30" height="18.5417" fill="white" transform="translate(0 0.229004)"/>
</clipPath>
</defs>
</svg>
