<svg width="20" height="14" viewBox="0 0 20 14" fill="none" xmlns="http://www.w3.org/2000/svg">
<path d="M10.0001 4.27246C8.49554 4.27246 7.27283 5.49518 7.27283 6.99974C7.27283 8.5043 8.49554 9.72701 10.0001 9.72701C11.5047 9.72701 12.7274 8.5043 12.7274 6.99974C12.7274 5.49518 11.5046 4.27246 10.0001 4.27246Z" fill="#667585"/>
<path d="M10 0.181641C5.45455 0.181641 1.57274 3.00889 0 6.99983C1.57274 10.9907 5.45455 13.818 10 13.818C14.55 13.818 18.4273 10.9907 20 6.99983C18.4273 3.00889 14.55 0.181641 10 0.181641ZM10 11.5453C7.49093 11.5453 5.45455 9.50888 5.45455 6.99979C5.45455 4.49069 7.49093 2.45436 10 2.45436C12.5091 2.45436 14.5455 4.49074 14.5455 6.99983C14.5455 9.50893 12.5091 11.5453 10 11.5453Z" fill="#667585"/>
</svg>
