<svg width="24" height="24" viewBox="0 0 24 24" fill="none" xmlns="http://www.w3.org/2000/svg">
<g clip-path="url(#clip0_2712_835)">
<path fill-rule="evenodd" clip-rule="evenodd" d="M0 20.9065C0 14.969 0 9.03149 0 3.09399C0.015 3.05149 0.0359999 3.00999 0.0434999 2.96599C0.2535 1.78949 0.8835 0.912488 1.951 0.379988C2.3065 0.202988 2.7115 0.123988 3.0935 0.000488281C9.031 0.000488281 14.9685 0.000488281 20.906 0.000488281C20.9485 0.0154883 20.99 0.0359882 21.034 0.0439882C22.5145 0.331488 23.4615 1.20549 23.891 2.64599C23.935 2.79249 23.964 2.94449 24 3.09349C24 9.03099 24 14.9685 24 20.906C23.985 20.9485 23.9645 20.99 23.956 21.0335C23.67 22.503 22.8065 23.451 21.3765 23.8835C21.222 23.9305 21.063 23.9615 20.9065 23.9995C14.969 23.9995 9.0315 23.9995 3.094 23.9995C3.0515 23.985 3.0105 23.964 2.9665 23.9555C1.487 23.6675 0.539 22.7945 0.109 21.354C0.0645002 21.2075 0.036 21.0555 0 20.9065ZM11.996 18.375C15.4755 18.377 18.3195 15.542 18.3285 12.0625C18.3375 8.57299 15.494 5.72099 12.0045 5.71899C8.524 5.71699 5.6805 8.55149 5.672 12.031C5.6635 15.5195 8.5075 18.372 11.996 18.375ZM21.1395 4.30349C21.1355 3.53499 20.501 2.90599 19.7315 2.90699C18.9625 2.90799 18.33 3.54099 18.329 4.30949C18.3275 5.08799 18.9695 5.72499 19.749 5.71799C20.5165 5.71149 21.1435 5.07349 21.1395 4.30349Z" fill="#0D1E70"/>
<path fill-rule="evenodd" clip-rule="evenodd" d="M11.9976 7.125C14.7081 7.124 16.9181 9.329 16.9221 12.038C16.9256 14.7575 14.7101 16.9725 11.9906 16.9685C9.28211 16.9635 7.07661 14.7525 7.07861 12.0425C7.08011 9.334 9.28811 7.126 11.9976 7.125Z" fill="#0D1E70"/>
</g>
<defs>
<clipPath id="clip0_2712_835">
<rect width="24" height="24" fill="white"/>
</clipPath>
</defs>
</svg>
