<svg width="24" height="24" viewBox="0 0 24 24" fill="none" xmlns="http://www.w3.org/2000/svg">
<path d="M7.66052 21.9432L7.66053 21.9432C8.60502 22.4424 9.60717 22.7638 10.6653 22.8997L7.66052 21.9432ZM7.66052 21.9432C6.19889 21.1707 5.02563 20.0854 4.11662 18.6967M7.66052 21.9432L4.11662 18.6967M4.11662 18.6967C4.90514 17.2022 6.09239 16.2675 7.7448 15.8525L7.7449 15.8524C7.79079 15.8409 7.84415 15.8302 7.92118 15.816C7.93294 15.8138 7.9457 15.8115 7.95927 15.809C8.02178 15.7976 8.1014 15.783 8.1793 15.7665C8.19127 15.7721 8.21305 15.7838 8.24562 15.8067L4.11662 18.6967ZM16.3813 15.8805L16.3813 15.8805C15.9223 15.7526 15.7266 15.7848 15.4941 15.9553C14.5174 16.6717 13.3865 16.938 12.3044 16.9855C10.834 17.0499 9.46278 16.6658 8.24575 15.8068L16.3813 15.8805ZM16.3813 15.8805C17.8702 16.2951 18.9813 17.1677 19.7817 18.5061L19.7817 18.5061M16.3813 15.8805L19.7817 18.5061M19.7817 18.5061L19.7894 18.519M19.7817 18.5061L19.7894 18.519M12.5388 22.9748L12.5395 22.9747C13.7853 22.9056 14.9653 22.5937 16.0863 22.042C17.6165 21.2889 18.8393 20.183 19.7906 18.7496C19.7907 18.7496 19.7907 18.7496 19.7907 18.7496L12.5388 22.9748ZM12.5388 22.9748C12.4617 22.9791 12.3947 22.9903 12.3474 23L11.542 23M12.5388 22.9748L11.542 23M11.542 23C11.4544 22.9902 11.3693 22.9808 11.2857 22.9717C11.0741 22.9484 10.8725 22.9263 10.6654 22.8997L11.542 23ZM19.7894 18.519C19.8171 18.5653 19.841 18.6053 19.8622 18.6412L19.7894 18.519ZM16.6496 14.9171L16.6495 14.9174L16.6496 14.9171ZM19.9684 18.8328C19.9684 18.8328 19.9679 18.8318 19.9671 18.8298C19.968 18.8318 19.9684 18.8328 19.9684 18.8328Z" stroke="#0D1E70" stroke-width="2"/>
<path d="M13.5079 5.30168L13.5078 5.30166C13.3547 5.23845 13.1733 5.18949 12.9378 5.13887C12.8717 5.12467 12.791 5.10842 12.703 5.09072C12.5665 5.06324 12.4126 5.03225 12.2691 5H11.7348C11.6948 5.00883 11.6457 5.0177 11.5911 5.0232L13.5079 5.30168ZM13.5079 5.30168C14.9903 5.91333 15.8514 6.97306 16.1259 8.55083C16.4233 10.2596 15.5817 12.0091 14.0306 12.8414L14.0306 12.8414M13.5079 5.30168L14.0306 12.8414M14.0306 12.8414C12.4801 13.6733 11.0107 13.5915 9.56747 12.5873M14.0306 12.8414L9.56747 12.5873M9.56747 12.5873C8.42487 11.7922 7.84053 10.6913 7.81441 9.29512L9.56747 12.5873ZM7.81441 9.2951C7.78549 7.74696 8.4273 6.56132 9.73946 5.67118L7.81441 9.2951ZM9.73952 5.67115C10.2823 5.30304 10.8992 5.09318 11.5904 5.02327L9.73952 5.67115Z" stroke="#0D1E70" stroke-width="2"/>
<rect x="1" y="1" width="22" height="22" rx="11" stroke="#0D1E70" stroke-width="2"/>
</svg>
