<svg width="20" height="22" viewBox="0 0 20 22" fill="none" xmlns="http://www.w3.org/2000/svg">
<path d="M14.5 8.39893L5.5 3.20893M1.29 5.99893L10 10.9989M10 10.9989L18.71 5.99893M10 10.9989V20.9989M19 14.9989V6.99893C18.9996 6.6482 18.9071 6.30374 18.7315 6.00009C18.556 5.69644 18.3037 5.44429 18 5.26893L11 1.26893C10.696 1.09339 10.3511 1.00098 10 1.00098C9.64893 1.00098 9.30404 1.09339 9 1.26893L2 5.26893C1.69626 5.44429 1.44398 5.69644 1.26846 6.00009C1.09294 6.30374 1.00036 6.6482 1 6.99893V14.9989C1.00036 15.3497 1.09294 15.6941 1.26846 15.9978C1.44398 16.3014 1.69626 16.5536 2 16.7289L9 20.7289C9.30404 20.9045 9.64893 20.9969 10 20.9969C10.3511 20.9969 10.696 20.9045 11 20.7289L18 16.7289C18.3037 16.5536 18.556 16.3014 18.7315 15.9978C18.9071 15.6941 18.9996 15.3497 19 14.9989Z" stroke="#0D1E70" stroke-width="2" stroke-linecap="round" stroke-linejoin="round"/>
</svg>
