<svg width="20" height="18" viewBox="0 0 20 18" fill="none" xmlns="http://www.w3.org/2000/svg">
<path d="M16.9 9V5H2.90002C2.36959 5 1.86088 4.78929 1.48581 4.41421C1.11074 4.03914 0.900024 3.53043 0.900024 3M0.900024 3C0.900024 1.9 1.80002 1 2.90002 1H14.9V5M0.900024 3V15C0.900024 16.1 1.80002 17 2.90002 17H16.9V13M14.9 9C14.3696 9 13.8609 9.21071 13.4858 9.58579C13.1107 9.96086 12.9 10.4696 12.9 11C12.9 12.1 13.8 13 14.9 13H18.9V9H14.9Z" stroke="#666666" stroke-width="1.8" stroke-linecap="round" stroke-linejoin="round"/>
</svg>
