<svg width="20" height="20" viewBox="0 0 20 20" fill="none" xmlns="http://www.w3.org/2000/svg">
<path d="M15.3854 8.53623C16.2364 8.85351 16.9937 9.38026 17.5872 10.0678C18.1807 10.7553 18.5913 11.5813 18.7809 12.4696C18.9706 13.3578 18.9332 14.2795 18.6723 15.1495C18.4113 16.0194 17.9352 16.8095 17.288 17.4467C16.6408 18.0839 15.8433 18.5477 14.9694 18.795C14.0955 19.0423 13.1733 19.0653 12.2881 18.8618C11.403 18.6583 10.5834 18.2349 9.90526 17.6307C9.2271 17.0266 8.71223 16.2612 8.40827 15.4053M5.40137 4.60205H6.30164V8.20313M14.143 11.6962L14.7732 12.3354L12.2344 14.8741M11.7033 6.40259C11.7033 9.38582 9.28487 11.8042 6.30164 11.8042C3.31841 11.8042 0.900024 9.38582 0.900024 6.40259C0.900024 3.41936 3.31841 1.00098 6.30164 1.00098C9.28487 1.00098 11.7033 3.41936 11.7033 6.40259Z" stroke="#666666" stroke-width="1.8" stroke-linecap="round" stroke-linejoin="round"/>
</svg>
