<svg width="20" height="18" viewBox="0 0 20 18" fill="none" xmlns="http://www.w3.org/2000/svg">
<path d="M17.705 2.29581L17.7062 2.29704C19.3982 3.98898 19.6018 6.9347 17.2832 9.2996L10 16.5828L2.71683 9.29959C0.398177 6.93469 0.601812 3.98898 2.29375 2.29704L2.29498 2.29581C2.70336 1.88601 3.18862 1.56086 3.72293 1.339C4.25724 1.11714 4.83009 1.00293 5.40863 1.00293C5.98717 1.00293 6.56002 1.11714 7.09433 1.339C7.62793 1.56057 8.11262 1.88516 8.52066 2.29419C8.5212 2.29473 8.52174 2.29527 8.52227 2.29581L9.28835 3.07185L10 3.79274L10.7117 3.07185L11.4777 2.29581C11.4783 2.29527 11.4788 2.29473 11.4793 2.29419C11.8874 1.88516 12.3721 1.56057 12.9057 1.339C13.44 1.11714 14.0128 1.00293 14.5914 1.00293C15.1699 1.00293 15.7428 1.11714 16.2771 1.339C16.8114 1.56086 17.2966 1.88601 17.705 2.29581Z" stroke="#0D1E70" stroke-width="2"/>
</svg>
