<svg width="12" height="16" viewBox="0 0 12 16" fill="none" xmlns="http://www.w3.org/2000/svg">
<path d="M1.15159 16H10.8486C11.2502 16 11.5758 15.6744 11.5758 15.2727V7.0303C11.5758 6.62865 11.2502 6.30303 10.8486 6.30303H10.1213V4.12121C10.1213 1.84878 8.27251 0 6.00007 0C3.72764 0 1.87886 1.84878 1.87886 4.12121V6.30303H1.15159C0.749941 6.30303 0.424316 6.62865 0.424316 7.0303V15.2727C0.424316 15.6744 0.749941 16 1.15159 16ZM6.72735 11.3933V12.3636C6.72735 12.7653 6.40172 13.0909 6.00007 13.0909C5.59842 13.0909 5.2728 12.7653 5.2728 12.3636V11.3933C4.97859 11.1719 4.78795 10.82 4.78795 10.4242C4.78795 9.75588 5.33171 9.21212 6.00007 9.21212C6.66844 9.21212 7.21219 9.75588 7.21219 10.4242C7.21219 10.82 7.02155 11.1719 6.72735 11.3933ZM3.33341 4.12121C3.33341 2.65081 4.52967 1.45455 6.00007 1.45455C7.47047 1.45455 8.66674 2.65081 8.66674 4.12121V6.30303H3.33341V4.12121Z" fill="#8897A2"/>
</svg>
