<svg width="24" height="25" viewBox="0 0 24 25" fill="none" xmlns="http://www.w3.org/2000/svg">
<path fill-rule="evenodd" clip-rule="evenodd" d="M0 21.2405C0 15.303 0 9.36547 0 3.42797C0.015 3.38547 0.0359999 3.34397 0.0434999 3.29997C0.2535 2.12347 0.8835 1.24647 1.951 0.713973C2.3065 0.536973 2.7115 0.457973 3.0935 0.334473C9.031 0.334473 14.9685 0.334473 20.906 0.334473C20.9485 0.349473 20.99 0.369973 21.034 0.377973C22.5145 0.665473 23.4615 1.53947 23.891 2.97997C23.935 3.12647 23.964 3.27847 24 3.42747C24 9.36497 24 15.3025 24 21.24C23.985 21.2825 23.9645 21.324 23.956 21.3675C23.67 22.837 22.8065 23.785 21.3765 24.2175C21.222 24.2645 21.063 24.2955 20.9065 24.3335C14.969 24.3335 9.0315 24.3335 3.094 24.3335C3.0515 24.319 3.0105 24.298 2.9665 24.2895C1.487 24.0015 0.539 23.1285 0.109 21.688C0.0645002 21.5415 0.036 21.3895 0 21.2405ZM11.996 18.709C15.4755 18.711 18.3195 15.876 18.3285 12.3965C18.3375 8.90697 15.494 6.05497 12.0045 6.05297C8.524 6.05097 5.6805 8.88547 5.672 12.365C5.6635 15.8535 8.5075 18.706 11.996 18.709ZM21.1395 4.63747C21.1355 3.86897 20.501 3.23997 19.7315 3.24097C18.9625 3.24197 18.33 3.87497 18.329 4.64347C18.3275 5.42197 18.9695 6.05897 19.749 6.05197C20.5165 6.04547 21.1435 5.40747 21.1395 4.63747Z" fill="white"/>
</svg>
