<svg width="20" height="19" viewBox="0 0 20 19" fill="#111E6C" xmlns="http://www.w3.org/2000/svg">
<path d="M17.705 2.43381L17.7062 2.43504C19.3982 4.12699 19.6018 7.0727 17.2832 9.4376L10 16.7208L2.71683 9.43759C0.398177 7.07269 0.601812 4.12698 2.29375 2.43504L2.29498 2.43381C2.70336 2.02401 3.18862 1.69886 3.72293 1.477C4.25724 1.25514 4.83009 1.14093 5.40863 1.14093C5.98717 1.14093 6.56002 1.25514 7.09433 1.477C7.62793 1.69857 8.11262 2.02316 8.52066 2.43219C8.5212 2.43273 8.52174 2.43327 8.52227 2.43381L9.28835 3.20985L10 3.93075L10.7117 3.20985L11.4777 2.43381C11.4783 2.43327 11.4788 2.43273 11.4793 2.43219C11.8874 2.02316 12.3721 1.69857 12.9057 1.477C13.44 1.25514 14.0128 1.14093 14.5914 1.14093C15.1699 1.14093 15.7428 1.25514 16.2771 1.477C16.8114 1.69886 17.2966 2.02401 17.705 2.43381Z" stroke="#111E6C" stroke-width="2"/>
</svg>
