<svg width="24" height="24" viewBox="0 0 24 24" fill="none" xmlns="http://www.w3.org/2000/svg">
<path fill-rule="evenodd" clip-rule="evenodd" d="M21.9375 24C15.3127 24 8.68782 24 2.06296 24C2.02846 23.9855 1.99546 23.9645 1.95946 23.957C1.38747 23.841 0.922481 23.552 0.546489 23.107C0.257495 22.7645 0.117998 22.3575 0 21.9375C0 15.3127 0 8.68782 0 2.06296C0.0144997 2.02846 0.0354995 1.99546 0.0429993 1.95946C0.158997 1.38747 0.447991 0.922481 0.892982 0.546489C1.23547 0.257495 1.64247 0.117998 2.06246 0C8.68732 0 15.3122 0 21.937 0C21.971 0.0144997 22.0045 0.0354995 22.0405 0.0429993C22.612 0.158997 23.077 0.447991 23.453 0.892982C23.742 1.23597 23.8825 1.64297 24 2.06296C24 8.68782 24 15.3127 24 21.9375C23.9855 21.9715 23.9645 22.005 23.957 22.041C23.841 22.6125 23.552 23.0775 23.107 23.4535C22.7645 23.742 22.3575 23.8825 21.9375 24ZM9.6208 9.6128C9.6208 13.2187 9.6208 16.7992 9.6208 20.3781C10.8193 20.3781 12.0013 20.3781 13.2027 20.3781C13.2027 20.2676 13.2027 20.1751 13.2027 20.0826C13.2027 18.1456 13.2022 16.2082 13.2032 14.2712C13.2037 14.1232 13.2087 13.9742 13.2222 13.8267C13.3172 12.7852 14.4737 12.0087 15.4672 12.3172C16.3037 12.5772 16.7947 13.2527 16.7957 14.1677C16.7997 16.1437 16.7972 18.1196 16.7972 20.0961C16.7972 20.1881 16.7972 20.2796 16.7972 20.3821C18.0076 20.3821 19.1901 20.3821 20.3871 20.3821C20.3906 20.3091 20.3956 20.2486 20.3956 20.1881C20.3961 17.9931 20.4021 15.7982 20.3936 13.6032C20.3881 12.1397 19.7696 10.9703 18.5821 10.1343C16.8832 8.93781 14.9137 9.14081 13.4847 10.6668C13.3987 10.7588 13.3247 10.8618 13.2447 10.9593C13.2287 10.9533 13.2127 10.9468 13.1962 10.9403C13.1962 10.4998 13.1962 10.0588 13.1962 9.6108C11.9913 9.6128 10.8138 9.6128 9.6208 9.6128ZM3.61293 20.3781C4.8199 20.3781 6.00138 20.3781 7.18535 20.3781C7.18535 16.7807 7.18535 13.2007 7.18535 9.6218C5.98438 9.6218 4.8019 9.6218 3.61293 9.6218C3.61293 13.2137 3.61293 16.7882 3.61293 20.3781ZM7.55334 5.40339C7.55534 4.21241 6.58236 3.23643 5.39739 3.24043C4.21091 3.24443 3.22893 4.23191 3.24043 5.40839C3.25143 6.59536 4.20491 7.54534 5.39089 7.55334C6.58436 7.56084 7.55184 6.59936 7.55334 5.40339Z" fill="#0D1E70"/>
</svg>
