<svg width="24" height="25" viewBox="0 0 24 25" fill="none" xmlns="http://www.w3.org/2000/svg">
<path fill-rule="evenodd" clip-rule="evenodd" d="M21.9375 24.334C15.3127 24.334 8.68782 24.334 2.06296 24.334C2.02846 24.3195 1.99546 24.2985 1.95946 24.291C1.38747 24.175 0.922481 23.886 0.546489 23.441C0.257495 23.0985 0.117998 22.6915 0 22.2715C0 15.6467 0 9.0218 0 2.39694C0.0144997 2.36244 0.0354995 2.32944 0.0429993 2.29344C0.158997 1.72146 0.447991 1.25647 0.892982 0.880473C1.23547 0.591479 1.64247 0.451982 2.06246 0.333984C8.68732 0.333984 15.3122 0.333984 21.937 0.333984C21.971 0.348484 22.0045 0.369484 22.0405 0.376984C22.612 0.492981 23.077 0.781975 23.453 1.22697C23.742 1.56996 23.8825 1.97695 24 2.39694C24 9.0218 24 15.6467 24 22.2715C23.9855 22.3055 23.9645 22.339 23.957 22.375C23.841 22.9465 23.552 23.4115 23.107 23.7875C22.7645 24.076 22.3575 24.2165 21.9375 24.334ZM9.6208 9.94678C9.6208 13.5527 9.6208 17.1331 9.6208 20.7121C10.8193 20.7121 12.0013 20.7121 13.2027 20.7121C13.2027 20.6016 13.2027 20.5091 13.2027 20.4166C13.2027 18.4796 13.2022 16.5421 13.2032 14.6052C13.2037 14.4572 13.2087 14.3082 13.2222 14.1607C13.3172 13.1192 14.4737 12.3427 15.4672 12.6512C16.3037 12.9112 16.7947 13.5867 16.7957 14.5017C16.7997 16.4776 16.7972 18.4536 16.7972 20.4301C16.7972 20.5221 16.7972 20.6136 16.7972 20.7161C18.0076 20.7161 19.1901 20.7161 20.3871 20.7161C20.3906 20.6431 20.3956 20.5826 20.3956 20.5221C20.3961 18.3271 20.4021 16.1322 20.3936 13.9372C20.3881 12.4737 19.7696 11.3043 18.5821 10.4683C16.8831 9.2718 14.9137 9.47479 13.4847 11.0008C13.3987 11.0928 13.3247 11.1958 13.2447 11.2933C13.2287 11.2873 13.2127 11.2808 13.1962 11.2743C13.1962 10.8338 13.1962 10.3928 13.1962 9.94478C11.9913 9.94678 10.8138 9.94678 9.6208 9.94678ZM3.61292 20.7121C4.8199 20.7121 6.00138 20.7121 7.18535 20.7121C7.18535 17.1146 7.18535 13.5347 7.18535 9.95578C5.98438 9.95578 4.8019 9.95578 3.61292 9.95578C3.61292 13.5477 3.61292 17.1221 3.61292 20.7121ZM7.55334 5.73737C7.55534 4.5464 6.58236 3.57042 5.39739 3.57442C4.21091 3.57842 3.22893 4.5659 3.24043 5.74237C3.25143 6.92935 4.20491 7.87933 5.39089 7.88733C6.58436 7.89483 7.55184 6.93335 7.55334 5.73737Z" fill="white"/>
</svg>
