<svg id="b818a451-8007-4e9d-aba3-dcf8d227a12c" data-name="Layer 1" xmlns="http://www.w3.org/2000/svg" viewBox="0 0 49.88 65.57"><defs><style>.a3c0a21b-4f39-4ac5-8c1e-18083f84df05,.ae9464d2-8f0e-4701-9862-a1dde5e32ea0{fill:#0d1e70;}.ae9464d2-8f0e-4701-9862-a1dde5e32ea0{stroke:#0d1e70;stroke-miterlimit:10;stroke-width:0.5px;}</style></defs><path class="a3c0a21b-4f39-4ac5-8c1e-18083f84df05" d="M41.74,28.7V16.9c0-8.68-7.54-15.74-16.8-15.74S8.15,8.22,8.15,16.9V28.7a6.11,6.11,0,0,0-6.29,5.91V58.22a6.11,6.11,0,0,0,6.29,5.9H41.74A6.11,6.11,0,0,0,48,58.22V34.61A6.11,6.11,0,0,0,41.74,28.7ZM12.35,16.9c0-6.51,5.65-11.81,12.59-11.81s12.6,5.3,12.6,11.81V28.7H12.35ZM43.83,58.22a2,2,0,0,1-2.09,2H8.15a2,2,0,0,1-2.09-2V34.61a2,2,0,0,1,2.09-2H41.74a2,2,0,0,1,2.09,2Z"/><path class="ae9464d2-8f0e-4701-9862-a1dde5e32ea0" d="M34,37.44,20.78,51l-5.05-4.94a1.83,1.83,0,0,0-2.58,0,1.85,1.85,0,0,0-.52,1.29,1.82,1.82,0,0,0,.55,1.28l6.36,6.21a1.83,1.83,0,0,0,2.58,0l1.27-1.31L36.65,40a1.85,1.85,0,0,0,.52-1.29A1.83,1.83,0,0,0,34,37.44Z"/></svg>