<svg id="a52851f2-1cd2-48b4-b29e-a2052c12c8a0" data-name="Layer 1" xmlns="http://www.w3.org/2000/svg" viewBox="0 0 49.7 48.23"><defs><style>.a7de7093-acf6-4fba-8ccd-d68ec6a31d42{fill:none;stroke:#0d1e70;stroke-miterlimit:10;stroke-width:4px;}.b32506a5-6001-42d7-ba46-637a9b48cac9{fill:#0d1e70;}</style></defs><path class="a7de7093-acf6-4fba-8ccd-d68ec6a31d42" d="M24,3.2H41.7a4.58,4.58,0,0,1,4.58,4.58V40.15a4.58,4.58,0,0,1-4.58,4.58H24.59"/><path class="b32506a5-6001-42d7-ba46-637a9b48cac9" d="M16.15,11.52h0a2.43,2.43,0,0,1,0,3.44L9.7,21.42H36.26a2.43,2.43,0,0,1,2.43,2.43h0a2.43,2.43,0,0,1-2.43,2.43H9.78l6.45,6.46a2.43,2.43,0,0,1,0,3.44h0a2.43,2.43,0,0,1-3.44,0L2.14,25.53a2.43,2.43,0,0,1,0-3.44L12.71,11.52A2.43,2.43,0,0,1,16.15,11.52Z"/></svg>