<svg width="19" height="16" viewBox="0 0 19 16" fill="none" xmlns="http://www.w3.org/2000/svg">
<path d="M9.23429 13.5586L9.14286 13.6458L9.04229 13.5586C4.69943 9.80054 1.82857 7.31553 1.82857 4.79564C1.82857 3.05177 3.2 1.74387 5.02857 1.74387C6.43657 1.74387 7.808 2.6158 8.29257 3.80164H9.99314C10.4777 2.6158 11.8491 1.74387 13.2571 1.74387C15.0857 1.74387 16.4571 3.05177 16.4571 4.79564C16.4571 7.31553 13.5863 9.80054 9.23429 13.5586ZM13.2571 0C11.6663 0 10.1394 0.706267 9.14286 1.81362C8.14629 0.706267 6.61943 0 5.02857 0C2.21257 0 0 2.10136 0 4.79564C0 8.08283 3.10857 10.7771 7.81714 14.849L9.14286 16L10.4686 14.849C15.1771 10.7771 18.2857 8.08283 18.2857 4.79564C18.2857 2.10136 16.0731 0 13.2571 0Z" fill="#495057"/>
<path d="M16 9.17553V12.5714H15V9.17553C15 7.86941 14 6.82451 12.75 6.82451H9.915L11.455 8.43888L10.75 9.17553L8 6.30206L10.75 3.42859L11.46 4.16524L9.915 5.77961H12.75C14.545 5.77961 16 7.29994 16 9.17553Z" fill="#495057"/>
</svg>
