<svg id="a12ddc9a-be69-4b11-a49b-9ef460bb13d2" data-name="Layer 1" xmlns="http://www.w3.org/2000/svg" viewBox="0 0 54.35 74.03"><defs><style>.fd33ca25-5ef4-46f6-b3ab-db49a3ac9ff4{fill:#0d1e70;stroke:#0d1e70;stroke-miterlimit:10;stroke-width:1.5px;}</style></defs><path class="fd33ca25-5ef4-46f6-b3ab-db49a3ac9ff4" d="M27.3,3.68A24.49,24.49,0,0,0,2.84,28.14c0,7.23,4,16.72,11.81,28.21a157.46,157.46,0,0,0,11.7,15,1.27,1.27,0,0,0,.95.42,1.29,1.29,0,0,0,.95-.42,158.37,158.37,0,0,0,11.69-15c7.84-11.49,11.81-21,11.81-28.21A24.49,24.49,0,0,0,27.3,3.68Zm0,64.9C23,63.57,5.4,42.34,5.4,28.14a21.9,21.9,0,0,1,43.79,0C49.19,42.34,31.62,63.57,27.3,68.58Z"/><path class="fd33ca25-5ef4-46f6-b3ab-db49a3ac9ff4" d="M27.3,15.93A11.22,11.22,0,1,0,38.51,27.15,11.23,11.23,0,0,0,27.3,15.93Zm0,19.87A8.66,8.66,0,1,1,36,27.15,8.66,8.66,0,0,1,27.3,35.8Z"/></svg>