<svg id="f5141f74-86c8-470f-8fad-e0dca43b8de4" data-name="Layer 1" xmlns="http://www.w3.org/2000/svg" viewBox="0 0 111.21 84.07"><defs><style>.b6c19951-2af6-4bf7-8b21-88200e911680{fill:#0d1e70;}</style></defs><path class="b6c19951-2af6-4bf7-8b21-88200e911680" d="M104,27.15c-.44-2.53-3.8-2-5.42-1.81a13.81,13.81,0,0,0-3.16.73c-.23.08-1.46.49-2.32.86L93,26.59h0l0,0h0L86.63,11.12A10.84,10.84,0,0,0,84.15,7.4a13.92,13.92,0,0,0-9.67-3.94H34.67A13.94,13.94,0,0,0,25,7.4a10.84,10.84,0,0,0-2.48,3.72L16.19,26.55h0a0,0,0,0,0,0,0h0l-.14.34c-.86-.37-2.09-.78-2.32-.86a13.81,13.81,0,0,0-3.16-.73c-1.62-.18-5-.72-5.41,1.81a5.58,5.58,0,0,0,.67,4.18c1,1.39,2.94,2.12,5.77,2.18l1.26-.14A26.91,26.91,0,0,1,11,35.87l-.4.48a10.92,10.92,0,0,0-2.51,6.93V74.49c0,3.16,1.6,5.73,3.56,5.73h8.44c2,0,3.56-2.57,3.56-5.73V68.4H85.51v6.09c0,3.16,1.6,5.73,3.56,5.73h8.44c2,0,3.56-2.57,3.56-5.73V43.28a10.92,10.92,0,0,0-2.51-6.93l-.4-.48a26.91,26.91,0,0,1-1.85-2.5l1.26.14c2.83-.06,4.77-.79,5.77-2.18A5.63,5.63,0,0,0,104,27.15ZM32.39,50.44a2.38,2.38,0,0,1-1,1.59,2.49,2.49,0,0,1-1.44.46,3.58,3.58,0,0,1-.45,0A39,39,0,0,1,20,49.73a8.51,8.51,0,0,1-3.95-3.2,3.77,3.77,0,0,1-.23-3.32,2.7,2.7,0,0,1,2.93-1.64l10.76,1.69a3.22,3.22,0,0,1,2.2,1.33C32.84,46.13,32.7,48.62,32.39,50.44ZM20.14,29,26.53,13.3l0-.08a6,6,0,0,1,1.35-2,9.71,9.71,0,0,1,6.74-2.71H74.49a9.71,9.71,0,0,1,6.74,2.71,6.13,6.13,0,0,1,1.36,2l0,.08L89,29C78.85,28.33,67,28,54.58,28S30.3,28.33,20.14,29Zm73,17.5a8.59,8.59,0,0,1-4,3.2,38.85,38.85,0,0,1-9.48,2.72,3.42,3.42,0,0,1-.45,0A2.51,2.51,0,0,1,77.76,52a2.41,2.41,0,0,1-1-1.59c-.31-1.82-.45-4.31.66-5.85a3.24,3.24,0,0,1,2.2-1.33l10.76-1.69a2.7,2.7,0,0,1,2.93,1.64A3.8,3.8,0,0,1,93.09,46.53Z"/></svg>