<svg id="b1c7739a-cf9b-42b5-94dc-57c41cf55e68" data-name="Layer 1" xmlns="http://www.w3.org/2000/svg" viewBox="0 0 59.3 69.31"><defs><style>.b8690e97-a29c-4895-b765-aa4b6ff26565{fill:#0d1e70;stroke:#0d1e70;stroke-miterlimit:10;}</style></defs><path class="b8690e97-a29c-4895-b765-aa4b6ff26565" d="M30.31,7.23a3.15,3.15,0,0,1,.52,0,2.56,2.56,0,0,1,2,2.53v1A16.06,16.06,0,0,1,46.39,26.64c0,27,7.68,17.23,7.68,24.35v.38a1.32,1.32,0,0,1-1.32,1.32H7.88a1.33,1.33,0,0,1-1.33-1.32c0-8.24,7.69,2.92,7.69-24.73A16.06,16.06,0,0,1,27.83,10.78V9.72a2.49,2.49,0,0,1,2.48-2.49m8.32,48a8.33,8.33,0,0,1-16.63,0H38.63M30.31,4.37a5.35,5.35,0,0,0-5.19,4.08A18.79,18.79,0,0,0,11.38,26.64c0,16.14-2.56,17.44-3.93,18.15-1.9,1-3.76,2.28-3.76,6.58a4.2,4.2,0,0,0,4.19,4.19H19.15a11.2,11.2,0,0,0,22.33,0H52.75a4.2,4.2,0,0,0,4.19-4.19V51c0-3.81-1.84-5.12-3.57-6-1.44-.78-4.12-2.22-4.12-18.31A18.81,18.81,0,0,0,35.49,8.44a5.34,5.34,0,0,0-4.1-4,5.57,5.57,0,0,0-1.08-.11Z"/></svg>