<svg xmlns="http://www.w3.org/2000/svg" width="32" height="32"><style>.st0{fill:#717171}</style><path class="st0" d="M8 12.1c0 2.2.7 4.4 2 6.1v-.1c.8.9 1.3 2 1.5 3.1v.2c0 .8.4 1.5 1 1.9l.8.6v1c0 .3 0 .6.1.9 0 .3.1.5.1.6v.2c.1.1.3.3.7.4l.6.2.4.6.3.3c-.1 0-.3-.1-.5-.1h2c-.2 0-.3 0-.4.1l.3-.3.4-.6.6-.2c.4-.1.6-.3.7-.4v-.2c.1-.5.1-1 .1-1.5v-1l.8-.6c.6-.4 1-1.1 1-1.9v-.2c.2-1.2.7-2.2 1.5-3.1v.1c1.3-1.8 2-3.9 2-6.1C24 7.6 20.4 4 16 4s-8 3.6-8 8.1zm18 0c0 2.6-.9 5.2-2.4 7.3-.5.6-.9 1.4-1 2.1 0 1.4-.7 2.7-1.9 3.5 0 .8-.1 1.7-.1 1.7 0 .5-.3 1.6-2.1 2.3-.2.3-.5.6-.8.8-.2.1-.5.2-.7.2h-2c-.3 0-.5-.1-.7-.2-.3-.2-.6-.5-.8-.8-1.8-.6-2-1.7-2.1-2.3 0 0-.1-.9-.1-1.7-1.1-.8-1.8-2.1-1.9-3.5-.1-.8-.5-1.5-1-2.1C6.9 17.3 6 14.7 6 12.1 6 6.5 10.5 2 16 2s10 4.5 10 10.1z"/><path class="st0" d="M12 23h8v2h-8v-2zm3-13h2v11h-2V10z"/><path class="st0" d="M13 10h6v2h-6v-2zM3.1 6.6C1.6 10 1.6 13.9 3 17.3c.2.5.8.8 1.3.5.5-.2.8-.8.5-1.3-1.2-3-1.2-6.3 0-9.2.2-.5 0-1.1-.5-1.3s-1 0-1.2.6c0-.1 0-.1 0 0zm25.8 0c1.4 3.4 1.5 7.3 0 10.8-.2.5-.8.7-1.3.5-.5-.2-.7-.8-.5-1.3 1.2-3 1.2-6.3 0-9.2-.2-.5 0-1.1.6-1.3.4-.2 1 0 1.2.5z"/></svg>