<svg width="24" height="26" viewBox="0 0 24 26" fill="none" xmlns="http://www.w3.org/2000/svg">
<mask id="path-1-outside-1_855_18" maskUnits="userSpaceOnUse" x="0.494629" y="0.11792" width="23" height="26" fill="black">
<rect fill="white" x="0.494629" y="0.11792" width="23" height="26"/>
<path fill-rule="evenodd" clip-rule="evenodd" d="M12.6899 25.1179C11.359 24.7585 10.0281 24.4022 8.69714 24.0418C8.22355 23.9139 7.74996 23.7807 7.27742 23.6475C6.90637 23.5428 6.55117 23.583 6.21183 23.7627C6.07335 23.8346 5.94227 23.9213 5.7985 23.9826C5.5469 24.0893 5.36719 24.212 5.39044 24.5407C5.4063 24.7596 5.22976 24.8959 5.00459 24.8917C3.97389 24.8706 2.94319 24.8462 1.91249 24.8124C1.61861 24.804 1.48753 24.639 1.49493 24.3304C1.54461 22.4878 1.59852 20.6452 1.64927 18.8026C1.65984 18.4189 1.66618 18.0362 1.67781 17.6546C1.68838 17.31 1.82898 17.1757 2.17466 17.1831C3.13559 17.2053 4.09546 17.2286 5.05639 17.2539C5.48559 17.2666 5.6061 17.403 5.58919 17.8364C5.5839 17.9834 5.58813 18.1303 5.58813 18.2804C5.92429 18.1631 6.25412 18.0235 6.59663 17.9294C7.82818 17.5912 9.03754 17.6778 10.1708 18.2635C10.9002 18.6409 11.6455 18.8291 12.4595 18.8248C13.1783 18.8206 13.895 18.8639 14.6139 18.8766C15.5717 18.8935 16.3095 19.2942 16.8222 20.105C16.8392 20.1293 16.8582 20.1547 16.8878 20.1938C17.0992 20.0944 17.3085 19.9982 17.5199 19.8999C18.3582 19.5035 19.1944 19.0976 20.0391 18.7128C20.926 18.3068 21.9673 18.6081 22.5043 19.4094C22.7178 19.7297 22.6819 19.9253 22.3626 20.1325C20.0888 21.6051 17.817 23.0787 15.5378 24.5428C15.0441 24.8589 14.4744 24.9794 13.9003 25.0693C13.8242 25.0809 13.7492 25.1 13.6741 25.1169C13.3453 25.1179 13.0176 25.1179 12.6899 25.1179ZM16.3254 20.974C16.2154 20.3101 15.5516 19.7192 14.8147 19.679C14.3866 19.6557 13.9564 19.6483 13.5272 19.6346C12.9331 19.6166 12.34 19.605 11.747 19.5828C11.0419 19.5564 10.4287 19.2498 9.80396 18.957C8.42863 18.3142 7.06811 18.3882 5.74247 19.1314C5.6061 19.2086 5.5469 19.2974 5.54267 19.4602C5.51413 20.6854 5.47607 21.9106 5.44119 23.1379C5.44013 23.1717 5.45282 23.2056 5.46339 23.2679C5.58813 23.2013 5.69173 23.1506 5.79215 23.0946C6.34609 22.7891 6.92645 22.7288 7.5343 22.9022C8.31341 23.1231 9.09357 23.3462 9.87584 23.5576C10.8008 23.8081 11.7184 24.1041 12.6582 24.2796C13.542 24.4424 14.4342 24.3082 15.208 23.8166C17.2958 22.4899 19.3657 21.1336 21.4408 19.7889C21.5106 19.7445 21.5772 19.6959 21.647 19.6462C21.2833 19.2931 20.7875 19.2276 20.2907 19.4602C19.3731 19.8915 18.4618 20.3365 17.5379 20.753C17.2588 20.8788 17.1066 20.9951 17.1658 21.3419C17.225 21.678 17.04 21.8461 16.7091 21.8377C15.1953 21.8007 13.6804 21.7584 12.1666 21.714C11.8738 21.7045 11.7068 21.5512 11.7089 21.3197C11.711 21.0776 11.8939 20.9296 12.1931 20.9359C12.7005 20.9465 13.209 20.9687 13.7164 20.9729C14.5854 20.9782 15.4511 20.974 16.3254 20.974ZM4.79528 18.0161C3.99715 18.0161 3.23707 18.0161 2.46008 18.0161C2.40511 20.0194 2.35014 22.0205 2.29411 24.0587C3.08485 24.0587 3.84492 24.0587 4.62826 24.0587C4.68323 22.0692 4.7382 20.067 4.79528 18.0161Z"/>
<path fill-rule="evenodd" clip-rule="evenodd" d="M12.4543 1.11792C12.6488 1.24478 12.708 1.42343 12.7069 1.65283C12.6995 2.80721 12.7038 3.9616 12.7027 5.11598C12.7027 5.19315 12.7059 5.27455 12.6869 5.34855C12.6382 5.53778 12.504 5.63926 12.3126 5.63926C12.1213 5.63926 11.986 5.53883 11.9395 5.34749C11.9194 5.26609 11.9236 5.17729 11.9236 5.09167C11.9226 3.95314 11.9278 2.81461 11.9194 1.67608C11.9173 1.43929 11.9701 1.25112 12.1742 1.11898C12.2672 1.11792 12.3613 1.11792 12.4543 1.11792Z"/>
<path fill-rule="evenodd" clip-rule="evenodd" d="M12.2957 17.7688C9.14118 17.7561 6.59033 15.1936 6.60301 12.0486C6.6157 8.90157 9.18452 6.35071 12.3327 6.36234C15.485 6.37291 18.038 8.93962 18.0253 12.0846C18.0105 15.2369 15.4459 17.7814 12.2957 17.7688ZM12.32 16.9865C15.0357 16.9801 17.2335 14.7792 17.2335 12.0666C17.2335 9.35085 15.0368 7.15202 12.32 7.1499C9.59575 7.14673 7.38846 9.35402 7.39269 12.0793C7.39692 14.7877 9.61055 16.9939 12.32 16.9865Z"/>
<path fill-rule="evenodd" clip-rule="evenodd" d="M15.6562 4.36331C15.6562 4.64451 15.6604 4.92571 15.6551 5.2069C15.6488 5.4733 15.4955 5.64138 15.2672 5.64138C15.0388 5.64138 14.8813 5.47541 14.8781 5.20902C14.8729 4.64662 14.8729 4.08423 14.8781 3.52184C14.8813 3.25333 15.0357 3.08842 15.265 3.08736C15.4966 3.08736 15.6488 3.25016 15.6551 3.51972C15.6594 3.80198 15.6562 4.08317 15.6562 4.36331Z"/>
<path fill-rule="evenodd" clip-rule="evenodd" d="M9.75113 4.37493C9.75113 4.65613 9.75642 4.93732 9.75007 5.21852C9.74373 5.48175 9.57987 5.64772 9.35154 5.64137C9.1306 5.63503 8.97625 5.47329 8.97308 5.22063C8.9678 4.65084 8.9678 4.08105 8.97308 3.51126C8.9752 3.24698 9.14222 3.08206 9.37162 3.08841C9.59256 3.09475 9.74267 3.25437 9.74901 3.50914C9.75641 3.79774 9.75113 4.08739 9.75113 4.37493Z"/>
<path fill-rule="evenodd" clip-rule="evenodd" d="M11.4224 10.741C11.4192 11.1955 11.7374 11.5634 12.192 11.629C12.3696 11.6543 12.5514 11.6575 12.7248 11.7008C13.4436 11.8774 13.9447 12.4916 13.9934 13.2316C14.0388 13.9398 13.6001 14.6471 12.9183 14.8817C12.6762 14.9642 12.6455 15.0837 12.6476 15.3004C12.6519 15.6482 12.3358 15.8395 12.0609 15.6735C11.8992 15.5763 11.8558 15.4198 11.8738 15.2496C11.8981 15.0319 11.8167 14.9346 11.6095 14.8416C11.0133 14.5731 10.6962 14.0815 10.6338 13.4324C10.6063 13.148 10.7638 12.9461 11.0048 12.9335C11.2374 12.9218 11.3949 13.0867 11.4214 13.37C11.4679 13.8785 11.8358 14.2157 12.3379 14.2094C12.7935 14.2052 13.1741 13.8426 13.2026 13.388C13.2333 12.9007 12.9013 12.4895 12.395 12.4408C12.0408 12.407 11.6983 12.3626 11.397 12.1565C10.8526 11.7865 10.5883 11.2674 10.6401 10.6183C10.693 9.95975 11.0408 9.47347 11.6529 9.21447C11.8305 9.13941 11.8939 9.05379 11.8728 8.87302C11.8632 8.78951 11.8696 8.69648 11.896 8.61825C11.9594 8.43431 12.1032 8.34023 12.2945 8.35925C12.4933 8.37934 12.6561 8.49985 12.6371 8.70494C12.6106 9.0189 12.7544 9.12567 13.0229 9.24301C13.6234 9.50412 13.9289 10.0084 13.9891 10.6564C14.0134 10.926 13.8591 11.1226 13.6276 11.1427C13.3992 11.1628 13.2269 10.9894 13.2026 10.7156C13.1529 10.1965 12.7576 9.83078 12.2734 9.85721C11.7956 9.88152 11.4256 10.2653 11.4224 10.741Z"/>
</mask>
<path fill-rule="evenodd" clip-rule="evenodd" d="M12.6899 25.1179C11.359 24.7585 10.0281 24.4022 8.69714 24.0418C8.22355 23.9139 7.74996 23.7807 7.27742 23.6475C6.90637 23.5428 6.55117 23.583 6.21183 23.7627C6.07335 23.8346 5.94227 23.9213 5.7985 23.9826C5.5469 24.0893 5.36719 24.212 5.39044 24.5407C5.4063 24.7596 5.22976 24.8959 5.00459 24.8917C3.97389 24.8706 2.94319 24.8462 1.91249 24.8124C1.61861 24.804 1.48753 24.639 1.49493 24.3304C1.54461 22.4878 1.59852 20.6452 1.64927 18.8026C1.65984 18.4189 1.66618 18.0362 1.67781 17.6546C1.68838 17.31 1.82898 17.1757 2.17466 17.1831C3.13559 17.2053 4.09546 17.2286 5.05639 17.2539C5.48559 17.2666 5.6061 17.403 5.58919 17.8364C5.5839 17.9834 5.58813 18.1303 5.58813 18.2804C5.92429 18.1631 6.25412 18.0235 6.59663 17.9294C7.82818 17.5912 9.03754 17.6778 10.1708 18.2635C10.9002 18.6409 11.6455 18.8291 12.4595 18.8248C13.1783 18.8206 13.895 18.8639 14.6139 18.8766C15.5717 18.8935 16.3095 19.2942 16.8222 20.105C16.8392 20.1293 16.8582 20.1547 16.8878 20.1938C17.0992 20.0944 17.3085 19.9982 17.5199 19.8999C18.3582 19.5035 19.1944 19.0976 20.0391 18.7128C20.926 18.3068 21.9673 18.6081 22.5043 19.4094C22.7178 19.7297 22.6819 19.9253 22.3626 20.1325C20.0888 21.6051 17.817 23.0787 15.5378 24.5428C15.0441 24.8589 14.4744 24.9794 13.9003 25.0693C13.8242 25.0809 13.7492 25.1 13.6741 25.1169C13.3453 25.1179 13.0176 25.1179 12.6899 25.1179ZM16.3254 20.974C16.2154 20.3101 15.5516 19.7192 14.8147 19.679C14.3866 19.6557 13.9564 19.6483 13.5272 19.6346C12.9331 19.6166 12.34 19.605 11.747 19.5828C11.0419 19.5564 10.4287 19.2498 9.80396 18.957C8.42863 18.3142 7.06811 18.3882 5.74247 19.1314C5.6061 19.2086 5.5469 19.2974 5.54267 19.4602C5.51413 20.6854 5.47607 21.9106 5.44119 23.1379C5.44013 23.1717 5.45282 23.2056 5.46339 23.2679C5.58813 23.2013 5.69173 23.1506 5.79215 23.0946C6.34609 22.7891 6.92645 22.7288 7.5343 22.9022C8.31341 23.1231 9.09357 23.3462 9.87584 23.5576C10.8008 23.8081 11.7184 24.1041 12.6582 24.2796C13.542 24.4424 14.4342 24.3082 15.208 23.8166C17.2958 22.4899 19.3657 21.1336 21.4408 19.7889C21.5106 19.7445 21.5772 19.6959 21.647 19.6462C21.2833 19.2931 20.7875 19.2276 20.2907 19.4602C19.3731 19.8915 18.4618 20.3365 17.5379 20.753C17.2588 20.8788 17.1066 20.9951 17.1658 21.3419C17.225 21.678 17.04 21.8461 16.7091 21.8377C15.1953 21.8007 13.6804 21.7584 12.1666 21.714C11.8738 21.7045 11.7068 21.5512 11.7089 21.3197C11.711 21.0776 11.8939 20.9296 12.1931 20.9359C12.7005 20.9465 13.209 20.9687 13.7164 20.9729C14.5854 20.9782 15.4511 20.974 16.3254 20.974ZM4.79528 18.0161C3.99715 18.0161 3.23707 18.0161 2.46008 18.0161C2.40511 20.0194 2.35014 22.0205 2.29411 24.0587C3.08485 24.0587 3.84492 24.0587 4.62826 24.0587C4.68323 22.0692 4.7382 20.067 4.79528 18.0161Z" fill="#333333"/>
<path fill-rule="evenodd" clip-rule="evenodd" d="M12.4543 1.11792C12.6488 1.24478 12.708 1.42343 12.7069 1.65283C12.6995 2.80721 12.7038 3.9616 12.7027 5.11598C12.7027 5.19315 12.7059 5.27455 12.6869 5.34855C12.6382 5.53778 12.504 5.63926 12.3126 5.63926C12.1213 5.63926 11.986 5.53883 11.9395 5.34749C11.9194 5.26609 11.9236 5.17729 11.9236 5.09167C11.9226 3.95314 11.9278 2.81461 11.9194 1.67608C11.9173 1.43929 11.9701 1.25112 12.1742 1.11898C12.2672 1.11792 12.3613 1.11792 12.4543 1.11792Z" fill="#333333"/>
<path fill-rule="evenodd" clip-rule="evenodd" d="M12.2957 17.7688C9.14118 17.7561 6.59033 15.1936 6.60301 12.0486C6.6157 8.90157 9.18452 6.35071 12.3327 6.36234C15.485 6.37291 18.038 8.93962 18.0253 12.0846C18.0105 15.2369 15.4459 17.7814 12.2957 17.7688ZM12.32 16.9865C15.0357 16.9801 17.2335 14.7792 17.2335 12.0666C17.2335 9.35085 15.0368 7.15202 12.32 7.1499C9.59575 7.14673 7.38846 9.35402 7.39269 12.0793C7.39692 14.7877 9.61055 16.9939 12.32 16.9865Z" fill="#333333"/>
<path fill-rule="evenodd" clip-rule="evenodd" d="M15.6562 4.36331C15.6562 4.64451 15.6604 4.92571 15.6551 5.2069C15.6488 5.4733 15.4955 5.64138 15.2672 5.64138C15.0388 5.64138 14.8813 5.47541 14.8781 5.20902C14.8729 4.64662 14.8729 4.08423 14.8781 3.52184C14.8813 3.25333 15.0357 3.08842 15.265 3.08736C15.4966 3.08736 15.6488 3.25016 15.6551 3.51972C15.6594 3.80198 15.6562 4.08317 15.6562 4.36331Z" fill="#333333"/>
<path fill-rule="evenodd" clip-rule="evenodd" d="M9.75113 4.37493C9.75113 4.65613 9.75642 4.93732 9.75007 5.21852C9.74373 5.48175 9.57987 5.64772 9.35154 5.64137C9.1306 5.63503 8.97625 5.47329 8.97308 5.22063C8.9678 4.65084 8.9678 4.08105 8.97308 3.51126C8.9752 3.24698 9.14222 3.08206 9.37162 3.08841C9.59256 3.09475 9.74267 3.25437 9.74901 3.50914C9.75641 3.79774 9.75113 4.08739 9.75113 4.37493Z" fill="#333333"/>
<path fill-rule="evenodd" clip-rule="evenodd" d="M11.4224 10.741C11.4192 11.1955 11.7374 11.5634 12.192 11.629C12.3696 11.6543 12.5514 11.6575 12.7248 11.7008C13.4436 11.8774 13.9447 12.4916 13.9934 13.2316C14.0388 13.9398 13.6001 14.6471 12.9183 14.8817C12.6762 14.9642 12.6455 15.0837 12.6476 15.3004C12.6519 15.6482 12.3358 15.8395 12.0609 15.6735C11.8992 15.5763 11.8558 15.4198 11.8738 15.2496C11.8981 15.0319 11.8167 14.9346 11.6095 14.8416C11.0133 14.5731 10.6962 14.0815 10.6338 13.4324C10.6063 13.148 10.7638 12.9461 11.0048 12.9335C11.2374 12.9218 11.3949 13.0867 11.4214 13.37C11.4679 13.8785 11.8358 14.2157 12.3379 14.2094C12.7935 14.2052 13.1741 13.8426 13.2026 13.388C13.2333 12.9007 12.9013 12.4895 12.395 12.4408C12.0408 12.407 11.6983 12.3626 11.397 12.1565C10.8526 11.7865 10.5883 11.2674 10.6401 10.6183C10.693 9.95975 11.0408 9.47347 11.6529 9.21447C11.8305 9.13941 11.8939 9.05379 11.8728 8.87302C11.8632 8.78951 11.8696 8.69648 11.896 8.61825C11.9594 8.43431 12.1032 8.34023 12.2945 8.35925C12.4933 8.37934 12.6561 8.49985 12.6371 8.70494C12.6106 9.0189 12.7544 9.12567 13.0229 9.24301C13.6234 9.50412 13.9289 10.0084 13.9891 10.6564C14.0134 10.926 13.8591 11.1226 13.6276 11.1427C13.3992 11.1628 13.2269 10.9894 13.2026 10.7156C13.1529 10.1965 12.7576 9.83078 12.2734 9.85721C11.7956 9.88152 11.4256 10.2653 11.4224 10.741Z" fill="#333333"/>
<path fill-rule="evenodd" clip-rule="evenodd" d="M12.6899 25.1179C11.359 24.7585 10.0281 24.4022 8.69714 24.0418C8.22355 23.9139 7.74996 23.7807 7.27742 23.6475C6.90637 23.5428 6.55117 23.583 6.21183 23.7627C6.07335 23.8346 5.94227 23.9213 5.7985 23.9826C5.5469 24.0893 5.36719 24.212 5.39044 24.5407C5.4063 24.7596 5.22976 24.8959 5.00459 24.8917C3.97389 24.8706 2.94319 24.8462 1.91249 24.8124C1.61861 24.804 1.48753 24.639 1.49493 24.3304C1.54461 22.4878 1.59852 20.6452 1.64927 18.8026C1.65984 18.4189 1.66618 18.0362 1.67781 17.6546C1.68838 17.31 1.82898 17.1757 2.17466 17.1831C3.13559 17.2053 4.09546 17.2286 5.05639 17.2539C5.48559 17.2666 5.6061 17.403 5.58919 17.8364C5.5839 17.9834 5.58813 18.1303 5.58813 18.2804C5.92429 18.1631 6.25412 18.0235 6.59663 17.9294C7.82818 17.5912 9.03754 17.6778 10.1708 18.2635C10.9002 18.6409 11.6455 18.8291 12.4595 18.8248C13.1783 18.8206 13.895 18.8639 14.6139 18.8766C15.5717 18.8935 16.3095 19.2942 16.8222 20.105C16.8392 20.1293 16.8582 20.1547 16.8878 20.1938C17.0992 20.0944 17.3085 19.9982 17.5199 19.8999C18.3582 19.5035 19.1944 19.0976 20.0391 18.7128C20.926 18.3068 21.9673 18.6081 22.5043 19.4094C22.7178 19.7297 22.6819 19.9253 22.3626 20.1325C20.0888 21.6051 17.817 23.0787 15.5378 24.5428C15.0441 24.8589 14.4744 24.9794 13.9003 25.0693C13.8242 25.0809 13.7492 25.1 13.6741 25.1169C13.3453 25.1179 13.0176 25.1179 12.6899 25.1179ZM16.3254 20.974C16.2154 20.3101 15.5516 19.7192 14.8147 19.679C14.3866 19.6557 13.9564 19.6483 13.5272 19.6346C12.9331 19.6166 12.34 19.605 11.747 19.5828C11.0419 19.5564 10.4287 19.2498 9.80396 18.957C8.42863 18.3142 7.06811 18.3882 5.74247 19.1314C5.6061 19.2086 5.5469 19.2974 5.54267 19.4602C5.51413 20.6854 5.47607 21.9106 5.44119 23.1379C5.44013 23.1717 5.45282 23.2056 5.46339 23.2679C5.58813 23.2013 5.69173 23.1506 5.79215 23.0946C6.34609 22.7891 6.92645 22.7288 7.5343 22.9022C8.31341 23.1231 9.09357 23.3462 9.87584 23.5576C10.8008 23.8081 11.7184 24.1041 12.6582 24.2796C13.542 24.4424 14.4342 24.3082 15.208 23.8166C17.2958 22.4899 19.3657 21.1336 21.4408 19.7889C21.5106 19.7445 21.5772 19.6959 21.647 19.6462C21.2833 19.2931 20.7875 19.2276 20.2907 19.4602C19.3731 19.8915 18.4618 20.3365 17.5379 20.753C17.2588 20.8788 17.1066 20.9951 17.1658 21.3419C17.225 21.678 17.04 21.8461 16.7091 21.8377C15.1953 21.8007 13.6804 21.7584 12.1666 21.714C11.8738 21.7045 11.7068 21.5512 11.7089 21.3197C11.711 21.0776 11.8939 20.9296 12.1931 20.9359C12.7005 20.9465 13.209 20.9687 13.7164 20.9729C14.5854 20.9782 15.4511 20.974 16.3254 20.974ZM4.79528 18.0161C3.99715 18.0161 3.23707 18.0161 2.46008 18.0161C2.40511 20.0194 2.35014 22.0205 2.29411 24.0587C3.08485 24.0587 3.84492 24.0587 4.62826 24.0587C4.68323 22.0692 4.7382 20.067 4.79528 18.0161Z" stroke="#333333" mask="url(#path-1-outside-1_855_18)"/>
<path fill-rule="evenodd" clip-rule="evenodd" d="M12.4543 1.11792C12.6488 1.24478 12.708 1.42343 12.7069 1.65283C12.6995 2.80721 12.7038 3.9616 12.7027 5.11598C12.7027 5.19315 12.7059 5.27455 12.6869 5.34855C12.6382 5.53778 12.504 5.63926 12.3126 5.63926C12.1213 5.63926 11.986 5.53883 11.9395 5.34749C11.9194 5.26609 11.9236 5.17729 11.9236 5.09167C11.9226 3.95314 11.9278 2.81461 11.9194 1.67608C11.9173 1.43929 11.9701 1.25112 12.1742 1.11898C12.2672 1.11792 12.3613 1.11792 12.4543 1.11792Z" stroke="#333333" mask="url(#path-1-outside-1_855_18)"/>
<path fill-rule="evenodd" clip-rule="evenodd" d="M12.2957 17.7688C9.14118 17.7561 6.59033 15.1936 6.60301 12.0486C6.6157 8.90157 9.18452 6.35071 12.3327 6.36234C15.485 6.37291 18.038 8.93962 18.0253 12.0846C18.0105 15.2369 15.4459 17.7814 12.2957 17.7688ZM12.32 16.9865C15.0357 16.9801 17.2335 14.7792 17.2335 12.0666C17.2335 9.35085 15.0368 7.15202 12.32 7.1499C9.59575 7.14673 7.38846 9.35402 7.39269 12.0793C7.39692 14.7877 9.61055 16.9939 12.32 16.9865Z" stroke="#333333" mask="url(#path-1-outside-1_855_18)"/>
<path fill-rule="evenodd" clip-rule="evenodd" d="M15.6562 4.36331C15.6562 4.64451 15.6604 4.92571 15.6551 5.2069C15.6488 5.4733 15.4955 5.64138 15.2672 5.64138C15.0388 5.64138 14.8813 5.47541 14.8781 5.20902C14.8729 4.64662 14.8729 4.08423 14.8781 3.52184C14.8813 3.25333 15.0357 3.08842 15.265 3.08736C15.4966 3.08736 15.6488 3.25016 15.6551 3.51972C15.6594 3.80198 15.6562 4.08317 15.6562 4.36331Z" stroke="#333333" mask="url(#path-1-outside-1_855_18)"/>
<path fill-rule="evenodd" clip-rule="evenodd" d="M9.75113 4.37493C9.75113 4.65613 9.75642 4.93732 9.75007 5.21852C9.74373 5.48175 9.57987 5.64772 9.35154 5.64137C9.1306 5.63503 8.97625 5.47329 8.97308 5.22063C8.9678 4.65084 8.9678 4.08105 8.97308 3.51126C8.9752 3.24698 9.14222 3.08206 9.37162 3.08841C9.59256 3.09475 9.74267 3.25437 9.74901 3.50914C9.75641 3.79774 9.75113 4.08739 9.75113 4.37493Z" stroke="#333333" mask="url(#path-1-outside-1_855_18)"/>
<path fill-rule="evenodd" clip-rule="evenodd" d="M11.4224 10.741C11.4192 11.1955 11.7374 11.5634 12.192 11.629C12.3696 11.6543 12.5514 11.6575 12.7248 11.7008C13.4436 11.8774 13.9447 12.4916 13.9934 13.2316C14.0388 13.9398 13.6001 14.6471 12.9183 14.8817C12.6762 14.9642 12.6455 15.0837 12.6476 15.3004C12.6519 15.6482 12.3358 15.8395 12.0609 15.6735C11.8992 15.5763 11.8558 15.4198 11.8738 15.2496C11.8981 15.0319 11.8167 14.9346 11.6095 14.8416C11.0133 14.5731 10.6962 14.0815 10.6338 13.4324C10.6063 13.148 10.7638 12.9461 11.0048 12.9335C11.2374 12.9218 11.3949 13.0867 11.4214 13.37C11.4679 13.8785 11.8358 14.2157 12.3379 14.2094C12.7935 14.2052 13.1741 13.8426 13.2026 13.388C13.2333 12.9007 12.9013 12.4895 12.395 12.4408C12.0408 12.407 11.6983 12.3626 11.397 12.1565C10.8526 11.7865 10.5883 11.2674 10.6401 10.6183C10.693 9.95975 11.0408 9.47347 11.6529 9.21447C11.8305 9.13941 11.8939 9.05379 11.8728 8.87302C11.8632 8.78951 11.8696 8.69648 11.896 8.61825C11.9594 8.43431 12.1032 8.34023 12.2945 8.35925C12.4933 8.37934 12.6561 8.49985 12.6371 8.70494C12.6106 9.0189 12.7544 9.12567 13.0229 9.24301C13.6234 9.50412 13.9289 10.0084 13.9891 10.6564C14.0134 10.926 13.8591 11.1226 13.6276 11.1427C13.3992 11.1628 13.2269 10.9894 13.2026 10.7156C13.1529 10.1965 12.7576 9.83078 12.2734 9.85721C11.7956 9.88152 11.4256 10.2653 11.4224 10.741Z" stroke="#333333" mask="url(#path-1-outside-1_855_18)"/>
</svg>
