<svg id="e00ca0a9-80cb-41af-b10c-98f12b44bd94" data-name="Layer 1" xmlns="http://www.w3.org/2000/svg" viewBox="0 0 110.9 47.92"><defs><style>.a673565c-5199-468b-9dd2-2deea4d278f2,.e8063cb3-4c97-4f3e-93b5-dfbea8b47bd0{fill:#0d1e70;}.e8063cb3-4c97-4f3e-93b5-dfbea8b47bd0{stroke:#0d1e70;stroke-miterlimit:10;stroke-width:1.5px;}.ad03b8ad-ed94-490c-9ffd-f092b143290e{fill:#fff;}</style></defs><path class="e8063cb3-4c97-4f3e-93b5-dfbea8b47bd0" d="M2.15,19.15l4.24,24.1a2.42,2.42,0,0,0,2.81,2l11.05-1.95a2.39,2.39,0,0,0,1.57-1,2.43,2.43,0,0,0,.4-1.81l-.33-1.88,2-.38a8.15,8.15,0,0,1,4.89.39l.12,0c4.71,1.74,13,4.18,16.56,4.18,2.41,0,6.13-1,11-2.86.64-.25,1.4-.55,2.24-.9,2.78-1.17,6.76-2.94,10.9-4.87l5.24-2.41L104.42,33A1.55,1.55,0,0,0,106,31.55L107,8a1.58,1.58,0,0,0-1.16-1.58,1.88,1.88,0,0,0-.33-.05l-47.1-2a1.5,1.5,0,0,0-1.12.41,1.54,1.54,0,0,0-.51,1.08L56.69,9.1a9.5,9.5,0,0,0-2.08-.25,3.82,3.82,0,0,0-3.78,2.4A5,5,0,0,0,47,9.58a4.87,4.87,0,0,0-4.1,2.55c-8.55-3.44-14.51.52-17.24,2.34l-.05,0c-.92.72-3.57,2.64-4.78,2.86l-2.55.47L18,16.37a2.41,2.41,0,0,0-1.76-1.92h0a2.33,2.33,0,0,0-1,0l-11,2A2.42,2.42,0,0,0,2.15,19.15ZM58.25,5.76a.19.19,0,0,1,.14,0l47.1,2a.2.2,0,0,1,.18.2l-1,23.57a.16.16,0,0,1-.06.13.21.21,0,0,1-.13.05L74.83,30.4h-.17l-17.29-.74a.19.19,0,0,1-.18-.19l.07-1.58L65,28a5.51,5.51,0,0,0,4-1.31,5.52,5.52,0,0,0-2.16-9.52,4.68,4.68,0,0,0-1-.17l-8.12-1L58,10.08h0l.17-4.19A.27.27,0,0,1,58.25,5.76ZM47,11a3.47,3.47,0,0,1,3.55,2.52.68.68,0,0,0,.75.47.67.67,0,0,0,.59-.67v-.16a3,3,0,0,1,.81-2.19,2.62,2.62,0,0,1,1.94-.71,8,8,0,0,1,2,.28l-.22,5.31-5-.64h0a22.75,22.75,0,0,1-2.41-.3l-.19,0A7.21,7.21,0,0,1,46.52,14a27.12,27.12,0,0,0-2.39-1.29A3.44,3.44,0,0,1,47,11ZM21,18.71c1.73-.31,4.91-2.76,5.37-3.12,3.14-2.08,9.66-6.38,19.4-.44a8.63,8.63,0,0,0,2.64,1l.25.06c.93.19,2.39.3,2.57.32L65.73,18.4h0a4.14,4.14,0,0,1,3.81,4.46,4.14,4.14,0,0,1-4.45,3.81h0l-22.9-.46a.69.69,0,0,0,0,1.37l13.74.28-.07,1.54A1.56,1.56,0,0,0,57,31l.33.06,14.53.62L69,33c-4.13,1.92-8.08,3.68-10.85,4.84-.83.35-1.57.65-2.21.89-4.75,1.83-8.3,2.76-10.54,2.77C42,41.45,34,39.06,29.34,37.36l-.12,0a9.58,9.58,0,0,0-5.62-.45l-2,.38L18.48,19.18Zm-16.67-1,11.05-1.95a1.13,1.13,0,0,1,.45,0h0a1.05,1.05,0,0,1,.77.84l4.24,24.1a1,1,0,0,1-.18.78,1,1,0,0,1-.68.43L9,43.87a1.14,1.14,0,0,1-.45,0A1.05,1.05,0,0,1,7.74,43L3.5,18.92A1.06,1.06,0,0,1,4.36,17.7Z"/><polygon class="a673565c-5199-468b-9dd2-2deea4d278f2" points="58.25 5.76 105.49 7.72 104.61 31.62 57.37 29.65 57.26 27.89 62.21 26.98 64.61 27.48 69.73 25.57 69.98 22.27 69.07 19.29 66.01 17.89 61.63 17.31 57.17 16.81 58.25 5.76"/><circle class="ad03b8ad-ed94-490c-9ffd-f092b143290e" cx="82.87" cy="18.64" r="10.68"/><path class="a673565c-5199-468b-9dd2-2deea4d278f2" d="M87.56,12.88H84.27a.09.09,0,0,0-.06.15,3.29,3.29,0,0,1,1,2,.09.09,0,0,0,.09.08h2.22a.09.09,0,0,1,.09.09v.92a.09.09,0,0,1-.09.09h-2.2a.09.09,0,0,0-.09.08c-.25,2.14-1.94,3.52-4.6,3.66a.09.09,0,0,0-.07.15c1.64,1.72,3.42,3.84,5.18,6a.09.09,0,0,1-.07.14H83.83a.09.09,0,0,1-.07,0c-1.7-2-3.29-3.94-5.33-6.11a.07.07,0,0,1,0-.06V18.81a.09.09,0,0,1,.09-.09h1.11c2.32,0,3.59-.94,3.79-2.4a.09.09,0,0,0-.09-.1H78.5a.09.09,0,0,1-.09-.09v-.92a.09.09,0,0,1,.09-.09h4.73a.1.1,0,0,0,.09-.12c-.35-1.2-1.5-1.79-3.36-1.79H78.5a.09.09,0,0,1-.09-.09V11.87a.09.09,0,0,1,.09-.09h9.06a.09.09,0,0,1,.09.09v.92A.09.09,0,0,1,87.56,12.88Z"/></svg>