<svg id="b60e712c-ff2a-4e4b-b151-3e856abbf7e6" data-name="Layer 1" xmlns="http://www.w3.org/2000/svg" viewBox="0 0 62.97 62.49"><defs><style>.fc172573-ac97-45b1-8089-1b4be4568485{fill:#0d1e70;stroke:#0d1e70;stroke-miterlimit:10;}</style></defs><path class="fc172573-ac97-45b1-8089-1b4be4568485" d="M31.76,1.76C5.46,1.76-7.74,34,11.34,52.41c18.58,17.89,49.87,4.81,49.87-21.2A29.48,29.48,0,0,0,31.76,1.76Zm0,2.79c22.75,0,34.89,26.78,20.33,43.88a21,21,0,0,0-14.49-15,9.77,9.77,0,1,0-11.67,0,21,21,0,0,0-14.5,15C-3.13,31.33,9,4.55,31.76,4.55Zm0,28.06h0a7,7,0,0,1-7-7c0-9.23,14-9.27,14,0C38.75,32.36,31.13,32.89,31.76,32.61Zm-18,18.27c3.11-20.62,32.83-20.37,35.9,0A26.56,26.56,0,0,1,13.81,50.88Z"/></svg>