<svg id="e634718c-196a-438f-93b5-5943fc5a5e97" data-name="Layer 1" xmlns="http://www.w3.org/2000/svg" viewBox="0 0 162.99 162.99"><defs><style>.e8543407-e356-450f-b2ee-e0cbf4f524cd{fill:#0d1e70;}.a87e6b19-9e2c-4a27-9e3c-f984a20b76d5{fill:#fff;stroke:#0d1e70;stroke-miterlimit:10;}</style></defs><circle class="e8543407-e356-450f-b2ee-e0cbf4f524cd" cx="81.5" cy="81.5" r="81.5"/><path class="a87e6b19-9e2c-4a27-9e3c-f984a20b76d5" d="M58.52,77.71l-14.93-5V112l32.21,14.9V83.49L58.53,77.71Z"/><path class="a87e6b19-9e2c-4a27-9e3c-f984a20b76d5" d="M91,106.51a.84.84,0,0,1,0-1.68,18.1,18.1,0,0,0,13.32-30.35l-26.89,9v43.45L109.68,112v-9.91a30.15,30.15,0,0,1-15.74,4.38Z"/><path class="a87e6b19-9e2c-4a27-9e3c-f984a20b76d5" d="M74.32,70.17l-7.93-6.62-21.13,8L58.76,76Z"/><path class="a87e6b19-9e2c-4a27-9e3c-f984a20b76d5" d="M86.64,68.63v10L103,73.18a18,18,0,0,0-12-4.55Z"/><path class="a87e6b19-9e2c-4a27-9e3c-f984a20b76d5" d="M75.8,71.41,61.28,76.86,76.63,82l8.46-2.83Z"/><path class="a87e6b19-9e2c-4a27-9e3c-f984a20b76d5" d="M121.47,68A28.83,28.83,0,0,0,93.94,47.44H85.8A.83.83,0,0,1,85,46.6V37.53L61.41,57.2l5.66,4.73.06,0h0l9.4,7.86,8.42,7V67.79A.84.84,0,0,1,85.8,67H91a19.72,19.72,0,0,1,14.09,5.91,1.14,1.14,0,0,1,.15.16h0a19.77,19.77,0,0,1-.27,27.7,20.06,20.06,0,0,1-4.43,3.34,28.46,28.46,0,0,0,9.4-4.13h0a.53.53,0,0,1,.1-.06l0,0a29.59,29.59,0,0,0,4.11-3.42A28.65,28.65,0,0,0,121.47,68Z"/></svg>