<svg width="90" height="90" viewBox="0 0 90 90" fill="none" xmlns="http://www.w3.org/2000/svg">
<rect x="0.75" y="0.75" width="88.5" height="88.5" stroke="#E0E0E0" stroke-width="1.5" stroke-dasharray="6 6"/>
<path d="M63 50.5V29.5C63 28.5717 62.6312 27.6815 61.9749 27.0251C61.3185 26.3687 60.4283 26 59.5 26H38.5C37.5717 26 36.6815 26.3687 36.0251 27.0251C35.3687 27.6815 35 28.5717 35 29.5V50.5C35 51.4283 35.3687 52.3185 36.0251 52.9749C36.6815 53.6313 37.5717 54 38.5 54H59.5C60.4283 54 61.3185 53.6313 61.9749 52.9749C62.6312 52.3185 63 51.4283 63 50.5ZM43.75 43.5L47.3025 48.2425L52.5 41.75L59.5 50.5H38.5M28 33V57.5C28 58.4283 28.3687 59.3185 29.0251 59.9749C29.6815 60.6312 30.5717 61 31.5 61H56V57.5H31.5V33" fill="#838383"/>
</svg>
