<svg width="22" height="24" viewBox="0 0 22 24" fill="none" xmlns="http://www.w3.org/2000/svg">
<path fill-rule="evenodd" clip-rule="evenodd" d="M18.4193 0C18.7643 0.0921471 19.121 0.153852 19.4522 0.281431C21.1456 0.933913 22.1834 2.66507 21.9735 4.45502C21.7628 6.25198 20.3643 7.70764 18.5762 7.95598C17.32 8.13042 16.2138 7.77642 15.2722 6.92177C15.2086 6.86411 15.1477 6.80373 15.0852 6.74512C15.0797 6.73994 15.0712 6.73817 15.0395 6.72308C12.6484 8.08583 10.2438 9.45642 7.82757 10.8336C8.05108 11.609 8.05443 12.3785 7.8263 13.1639C10.2354 14.537 12.6399 15.9075 15.0556 17.2844C15.8927 16.4219 16.9033 15.9766 18.0978 16.0021C19.0522 16.0224 19.8992 16.3524 20.6198 16.9836C22.0637 18.2487 22.4164 20.3172 21.4748 21.9682C20.5276 23.6291 18.5527 24.3897 16.7581 23.8041C15.1478 23.2788 13.5997 21.5378 14.0969 19.0421C13.4724 18.6857 12.8435 18.3265 12.2143 17.9677C10.4722 16.9745 8.72864 15.9836 6.98972 14.9847C6.83637 14.8965 6.74586 14.9035 6.60717 15.0188C5.40869 16.0164 4.04998 16.2806 2.5976 15.7331C1.12786 15.1791 0.261713 14.0756 0.0392716 12.5112C-0.195801 10.858 0.640091 9.26675 2.12733 8.468C3.57225 7.69192 5.37124 7.89509 6.61159 8.97667C6.70784 9.06067 6.77801 9.13596 6.93041 9.04861C9.31329 7.68257 11.7002 6.32354 14.0928 4.95908C14.0648 4.72053 14.0217 4.48319 14.0112 4.24445C13.9165 2.09444 15.3392 0.366441 17.4671 0.0381473C17.5045 0.0324631 17.5395 0.0130737 17.5756 6.31833e-05C17.8569 2.55353e-08 18.1382 0 18.4193 0Z" fill="#0D1E70"/>
</svg>
