<svg xmlns="http://www.w3.org/2000/svg" width="32" height="32"><style>.st0{fill:#717171}</style><path class="st0" d="M2 28V6c0-1.1.9-2 2-2h24c1.1 0 2 .9 2 2v22h-2V6H4v22H2z"/><path class="st0" d="M5 7h22v2H5zm19.9 11c0-.2-.1-.4-.1-.6-.8-1.8-2-3.9-2-3.9-.5-1.1-1.6-1.9-2.9-1.9h-7.8c-1.2.1-2.3.8-2.9 1.9 0 0-1.3 2.1-2 3.9-.1.2-.1.4-.1.6H6v2h1v5c0 .4.2.8.4 1.1.3.3.7.5 1.1.5h.9c.9 0 1.6-.7 1.6-1.6v-1.4h10V25c0 .9.8 1.6 1.6 1.6h.6c.9 0 1.6-.7 1.7-1.6v-5h1v-2h-1zM13 22.3H9v-2h4v2zm-4-3.4c0-.3.1-.6.1-.9.6-1.6 1.8-3.5 1.8-3.5l.1-.1.1-.1c.2-.4.6-.7 1.1-.8h7.6c.5 0 .9.3 1.1.8v.2s1.1 2 1.8 3.6c.1.3.1.6.1.9H9zm14 3.4h-4v-2h4v2z"/></svg>