<svg width="24" height="24" viewBox="0 0 24 24" fill="none" xmlns="http://www.w3.org/2000/svg">
<path d="M12.7501 9.75024C12.7501 9.33602 12.4143 9.00024 12.0001 9.00024C11.5859 9.00024 11.2501 9.33602 11.2501 9.75024H12.7501ZM11.2501 13.5002C11.2501 13.9145 11.5859 14.2502 12.0001 14.2502C12.4143 14.2502 12.7501 13.9145 12.7501 13.5002H11.2501ZM10.7063 3.75024L11.3554 4.12602L11.3573 4.12276L10.7063 3.75024ZM2.45634 18.0002L1.80727 17.6245L1.80682 17.6252L2.45634 18.0002ZM3.75009 20.2502L3.74745 21.0002H3.75009V20.2502ZM20.2501 20.2502V21.0002L20.2527 21.0002L20.2501 20.2502ZM21.5438 18.0002L22.1934 17.6252L22.1929 17.6245L21.5438 18.0002ZM13.2938 3.75024L12.6429 4.12276L12.6448 4.12601L13.2938 3.75024ZM12 16.5002V15.7502H12L12 16.5002ZM11.7651 16.583L11.2948 15.9988L11.7651 16.583ZM12.0001 16.8752L11.4156 17.3452L11.6408 17.6252H12.0001V16.8752ZM11.2501 9.75024V13.5002H12.7501V9.75024H11.2501ZM10.0573 3.37446L1.80727 17.6245L3.10541 18.376L11.3554 4.12601L10.0573 3.37446ZM1.80682 17.6252C1.60968 17.9667 1.50572 18.354 1.50537 18.7483L3.00537 18.7496C3.00549 18.6182 3.04014 18.4891 3.10585 18.3752L1.80682 17.6252ZM1.50537 18.7483C1.50502 19.1425 1.60829 19.53 1.80483 19.8718L3.10519 19.1241C3.03968 19.0102 3.00525 18.881 3.00537 18.7496L1.50537 18.7483ZM1.80483 19.8718C2.00137 20.2136 2.28428 20.4978 2.62522 20.6958L3.37866 19.3988C3.26501 19.3328 3.17071 19.238 3.10519 19.1241L1.80483 19.8718ZM2.62522 20.6958C2.96617 20.8939 3.35316 20.9988 3.74745 21.0002L3.75273 19.5002C3.6213 19.4998 3.4923 19.4648 3.37866 19.3988L2.62522 20.6958ZM3.75009 21.0002H20.2501V19.5002H3.75009V21.0002ZM20.2527 21.0002C20.647 20.9988 21.034 20.8939 21.375 20.6958L20.6215 19.3988C20.5079 19.4648 20.3789 19.4998 20.2474 19.5002L20.2527 21.0002ZM21.375 20.6958C21.7159 20.4978 21.9988 20.2136 22.1953 19.8718L20.895 19.1241C20.8295 19.238 20.7352 19.3328 20.6215 19.3988L21.375 20.6958ZM22.1953 19.8718C22.3919 19.53 22.4952 19.1425 22.4948 18.7483L20.9948 18.7496C20.9949 18.881 20.9605 19.0102 20.895 19.1241L22.1953 19.8718ZM22.4948 18.7483C22.4945 18.354 22.3905 17.9667 22.1934 17.6252L20.8943 18.3752C20.96 18.4891 20.9947 18.6182 20.9948 18.7496L22.4948 18.7483ZM22.1929 17.6245L13.9429 3.37446L12.6448 4.12601L20.8948 18.376L22.1929 17.6245ZM13.9448 3.37772C13.7487 3.03509 13.4656 2.75036 13.1241 2.55233L12.3716 3.84993C12.4845 3.91539 12.5781 4.00951 12.6429 4.12276L13.9448 3.37772ZM13.1241 2.55233C12.7826 2.35429 12.3948 2.25 12.0001 2.25V3.75C12.1306 3.75 12.2587 3.78447 12.3716 3.84993L13.1241 2.55233ZM12.0001 2.25C11.6053 2.25 11.2176 2.35429 10.8761 2.55233L11.6286 3.84993C11.7414 3.78447 11.8696 3.75 12.0001 3.75V2.25ZM10.8761 2.55233C10.5346 2.75036 10.2515 3.03509 10.0554 3.37772L11.3573 4.12276C11.4221 4.00951 11.5157 3.91539 11.6286 3.84993L10.8761 2.55233ZM12.0001 16.5002C12.2071 16.5002 12.375 16.668 12.375 16.8752H10.875C10.875 17.4967 11.3789 18.0002 12.0001 18.0002V16.5002ZM11.6251 16.8752C11.6251 16.6681 11.793 16.5002 12.0001 16.5002V18.0002C12.6214 18.0002 13.1251 17.4966 13.1251 16.8752H11.6251ZM12 17.2502C11.793 17.2502 11.6251 17.0824 11.6251 16.8752H13.1251C13.1251 16.2539 12.6213 15.7502 12 15.7502V17.2502ZM11.4697 17.0306L11.8448 17.4056L12.9054 16.3449L12.5304 15.9699L11.4697 17.0306ZM12 15.7502C11.7336 15.7502 11.4873 15.8438 11.2948 15.9988L12.2354 17.1672C12.1715 17.2187 12.0886 17.2502 12.0001 17.2502L12 15.7502ZM11.2948 15.9988C11.0402 16.2037 10.875 16.5204 10.875 16.8752H12.375C12.375 16.9938 12.3192 17.0998 12.2354 17.1672L11.2948 15.9988ZM11.1806 17.053C11.2746 17.1699 11.3334 17.243 11.3686 17.2868C11.3863 17.3087 11.398 17.3233 11.4053 17.3325C11.409 17.337 11.4116 17.3402 11.4132 17.3423C11.4141 17.3433 11.4147 17.344 11.4151 17.3445C11.4152 17.3448 11.4154 17.3449 11.4155 17.3451C11.4155 17.3451 11.4156 17.3452 11.4156 17.3452C11.4156 17.3452 11.4156 17.3452 11.4156 17.3452C11.4156 17.3452 11.4156 17.3452 11.4156 17.3452C11.4156 17.3452 11.4156 17.3452 11.4156 17.3452C11.4156 17.3452 11.4156 17.3452 12.0001 16.8752C12.5845 16.4052 12.5845 16.4052 12.5845 16.4052C12.5845 16.4052 12.5845 16.4052 12.5845 16.4052C12.5845 16.4052 12.5845 16.4052 12.5845 16.4052C12.5845 16.4052 12.5845 16.4052 12.5845 16.4052C12.5845 16.4052 12.5845 16.4051 12.5844 16.4051C12.5843 16.4049 12.5842 16.4048 12.584 16.4045C12.5836 16.404 12.583 16.4033 12.5822 16.4023C12.5805 16.4002 12.5779 16.397 12.5743 16.3924C12.5669 16.3833 12.5552 16.3687 12.5375 16.3468C12.5023 16.3029 12.4435 16.2299 12.3495 16.113L11.1806 17.053ZM12.0001 17.6252H12.3751V16.1252H12.0001V17.6252Z" fill="#DC6803"/>
</svg>
