<svg width="24" height="24" viewBox="0 0 24 24" fill="none" xmlns="http://www.w3.org/2000/svg">
<path d="M11.25 10.5C10.8358 10.5 10.5 10.8358 10.5 11.25C10.5 11.6642 10.8358 12 11.25 12V10.5ZM12 11.25H12.75C12.75 10.8358 12.4142 10.5 12 10.5V11.25ZM12 16.5H11.25C11.25 16.9142 11.5858 17.25 12 17.25V16.5ZM12.75 17.25C13.1642 17.25 13.5 16.9142 13.5 16.5C13.5 16.0858 13.1642 15.75 12.75 15.75V17.25ZM11.775 7.49997V6.74997L11.7749 6.74997L11.775 7.49997ZM11.54 7.58276L11.0697 6.99855L11.54 7.58276ZM11.775 7.875L11.1905 8.34501L11.4157 8.625H11.775V7.875ZM20.25 12C20.25 16.5563 16.5563 20.25 12 20.25V21.75C17.3848 21.75 21.75 17.3848 21.75 12H20.25ZM12 20.25C7.44365 20.25 3.75 16.5563 3.75 12H2.25C2.25 17.3848 6.61522 21.75 12 21.75V20.25ZM3.75 12C3.75 7.44365 7.44365 3.75 12 3.75V2.25C6.61522 2.25 2.25 6.61522 2.25 12H3.75ZM12 3.75C16.5563 3.75 20.25 7.44365 20.25 12H21.75C21.75 6.61522 17.3848 2.25 12 2.25V3.75ZM11.25 12H12V10.5H11.25V12ZM11.25 11.25V16.5H12.75V11.25H11.25ZM12 17.25H12.75V15.75H12V17.25ZM11.775 7.5C11.982 7.5 12.15 7.66779 12.15 7.875H10.65C10.65 8.49642 11.1538 9 11.775 9V7.5ZM11.4 7.875C11.4 7.66789 11.5679 7.5 11.775 7.5V9C12.3963 9 12.9 8.49632 12.9 7.875H11.4ZM11.775 8.24997C11.5679 8.24997 11.4 8.08214 11.4 7.875H12.9C12.9 7.25364 12.3962 6.74997 11.775 6.74997V8.24997ZM11.2446 8.03031L11.6197 8.40534L12.6803 7.34466L12.3053 6.96963L11.2446 8.03031ZM11.7749 6.74997C11.5085 6.75 11.2622 6.84357 11.0697 6.99855L12.0103 8.16698C11.9464 8.21843 11.8635 8.24997 11.775 8.24997L11.7749 6.74997ZM11.0697 6.99855C10.8151 7.20347 10.65 7.52016 10.65 7.875H12.15C12.15 7.99358 12.0941 8.09953 12.0103 8.16698L11.0697 6.99855ZM10.9555 8.05277C11.0495 8.16967 11.1083 8.24272 11.1435 8.28656C11.1612 8.30848 11.1729 8.32309 11.1803 8.33222C11.1839 8.33679 11.1865 8.33998 11.1882 8.34204C11.189 8.34307 11.1896 8.34381 11.19 8.34429C11.1902 8.34454 11.1903 8.34471 11.1904 8.34483C11.1904 8.34489 11.1905 8.34493 11.1905 8.34496C11.1905 8.34498 11.1905 8.34499 11.1905 8.345C11.1905 8.345 11.1905 8.345 11.1905 8.345C11.1905 8.345 11.1905 8.34501 11.1905 8.34501C11.1905 8.34501 11.1905 8.34501 11.775 7.875C12.3595 7.40499 12.3595 7.40499 12.3595 7.40499C12.3595 7.40499 12.3595 7.40499 12.3595 7.40499C12.3595 7.40499 12.3595 7.40499 12.3595 7.40498C12.3594 7.40498 12.3594 7.40496 12.3594 7.40495C12.3594 7.40492 12.3594 7.40488 12.3593 7.40482C12.3592 7.4047 12.3591 7.40452 12.3589 7.40428C12.3585 7.40379 12.3579 7.40305 12.3571 7.40203C12.3554 7.39997 12.3528 7.39677 12.3492 7.39221C12.3418 7.38308 12.3301 7.36846 12.3125 7.34655C12.2772 7.30271 12.2185 7.22965 12.1245 7.11276L10.9555 8.05277ZM11.775 8.625H12.15V7.125H11.775V8.625Z" fill="#1465B4"/>
</svg>
