<svg width="24" height="24" viewBox="0 0 24 24" fill="none" xmlns="http://www.w3.org/2000/svg">
<path d="M12 7.5V12.75M12.375 16.125C12.375 16.3321 12.2071 16.5 12 16.5C11.7929 16.5 11.625 16.3321 11.625 16.125C11.625 16.0069 11.6796 15.9015 11.765 15.8328M12.375 16.125C12.375 15.9179 12.2071 15.75 12 15.75M12.375 16.125L12 15.75M12.375 16.125H12C12 16.125 11.953 16.0666 11.765 15.8328M12 15.75C11.911 15.75 11.8293 15.781 11.765 15.8328M21 12C21 16.9706 16.9706 21 12 21C7.02944 21 3 16.9706 3 12C3 7.02944 7.02944 3 12 3C16.9706 3 21 7.02944 21 12Z" stroke="#BB251A" stroke-width="1.5" stroke-linecap="round"/>
</svg>
