<svg width="24" height="21" viewBox="0 0 24 21" fill="none" xmlns="http://www.w3.org/2000/svg">
<path d="M23.4559 2.77697C23.0789 2.94419 22.6912 3.08533 22.2952 3.19991C22.7641 2.66959 23.1216 2.04559 23.3398 1.36275C23.3888 1.20969 23.3381 1.04215 23.2123 0.942052C23.0866 0.841871 22.912 0.829871 22.7737 0.911858C21.9325 1.41075 21.025 1.76928 20.0734 1.97893C19.1149 1.04231 17.813 0.509277 16.4672 0.509277C13.6263 0.509277 11.315 2.82048 11.315 5.6613C11.315 5.88504 11.3292 6.10755 11.3572 6.32695C7.8319 6.01743 4.55451 4.28471 2.30393 1.52401C2.22372 1.42561 2.10016 1.37258 1.97366 1.38272C1.84708 1.39263 1.73335 1.46401 1.6694 1.57372C1.21293 2.35697 0.971617 3.25279 0.971617 4.16425C0.971617 5.40566 1.41484 6.58352 2.19779 7.50388C1.95972 7.42143 1.7287 7.31839 1.50821 7.19599C1.38984 7.1301 1.24537 7.13111 1.12777 7.19854C1.01009 7.26597 0.936314 7.39 0.933218 7.52556C0.932676 7.5484 0.932676 7.57124 0.932676 7.59439C0.932676 9.44742 1.92999 11.1157 3.45477 12.025C3.32377 12.0119 3.19286 11.993 3.06279 11.9681C2.9287 11.9425 2.79082 11.9895 2.70039 12.0918C2.60981 12.1939 2.57985 12.3364 2.62158 12.4665C3.18597 14.2285 4.63905 15.5246 6.39569 15.9198C4.93874 16.8323 3.2726 17.3103 1.52354 17.3103C1.15859 17.3103 0.79154 17.2888 0.432314 17.2463C0.253863 17.2251 0.0832303 17.3305 0.0224562 17.5002C-0.038318 17.67 0.0260949 17.8593 0.177914 17.9566C2.42486 19.3973 5.02297 20.1588 7.69123 20.1588C12.9367 20.1588 16.2181 17.6852 18.0472 15.6102C20.3279 13.0227 21.636 9.59792 21.636 6.214C21.636 6.07263 21.6338 5.92987 21.6295 5.78757C22.5293 5.10961 23.3041 4.28912 23.9345 3.34608C24.0303 3.20285 24.0199 3.01356 23.909 2.88172C23.7982 2.74979 23.6135 2.70714 23.4559 2.77697Z" fill="white"/>
</svg>
