<svg width="28" height="21" viewBox="0 0 28 21" fill="none" xmlns="http://www.w3.org/2000/svg">
<path d="M25.5871 6.5304C25.4808 5.90969 24.6621 6.0425 24.2656 6.0858C24.003 6.11561 23.7447 6.17567 23.4958 6.26479C23.4412 6.28212 23.1424 6.38316 22.9212 6.47554L22.8868 6.39182L21.3499 2.59831C21.2137 2.25559 21.0083 1.94496 20.7466 1.68602C20.112 1.07229 19.266 0.728864 18.3853 0.727539H8.68998C7.8055 0.728175 6.95582 1.07388 6.32002 1.6918C6.06316 1.95012 5.86175 2.25865 5.72824 2.59831L4.18562 6.38316L4.15114 6.46688C3.94144 6.3745 3.64268 6.27346 3.57661 6.25613C3.32766 6.16701 3.06934 6.10695 2.80673 6.07714C2.4103 6.03383 1.59159 5.90103 1.4853 6.52174C1.40452 6.87115 1.46441 7.23849 1.65191 7.54373C1.90184 7.89306 2.37296 8.0836 3.0624 8.0836L3.36978 8.04896C3.23009 8.26068 3.07955 8.46497 2.91876 8.661L2.82109 8.77648C2.42722 9.25603 2.21098 9.85799 2.20921 10.4798V18.1246C2.20921 18.8954 2.59702 19.5248 3.07102 19.5248H5.12786C5.60472 19.5248 5.98966 18.8954 5.98966 18.1246V16.632H21.077V18.1246C21.077 18.8954 21.4677 19.5248 21.9388 19.5248H23.9956C24.4753 19.5248 24.8574 18.8954 24.8574 18.1246V10.4798C24.8543 9.85998 24.6382 9.26027 24.2455 8.78225L24.1593 8.661C23.9985 8.46404 23.8479 8.25878 23.7083 8.04607L24.0157 8.0836C24.7052 8.06917 25.1648 7.89017 25.4205 7.54951C25.6072 7.24504 25.6671 6.8789 25.5871 6.5304ZM8.13268 12.2322C8.12076 12.3105 8.09294 12.3856 8.05093 12.4526C8.00892 12.5197 7.95363 12.5773 7.8885 12.622C7.78655 12.696 7.66379 12.7354 7.53803 12.7345H7.42887C6.63811 12.6096 5.86604 12.3856 5.13073 12.0677C4.73919 11.9096 4.40392 11.6371 4.16838 11.2853C4.09888 11.1625 4.05787 11.0255 4.04842 10.8845C4.03897 10.7435 4.06132 10.6022 4.1138 10.4711C4.1703 10.3328 4.27179 10.2178 4.40171 10.1449C4.53162 10.0721 4.68228 10.0456 4.8291 10.0699L7.44898 10.4827C7.556 10.4971 7.65891 10.5335 7.75133 10.5897C7.84375 10.6458 7.92368 10.7204 7.98617 10.8089C8.24184 11.1785 8.20737 11.7876 8.13268 12.2322ZM5.14796 6.98943L6.70496 3.13818V3.11797C6.78016 2.93135 6.89147 2.76159 7.03244 2.61852C7.47525 2.19192 8.06508 1.95399 8.67849 1.95451H18.3853C18.9979 1.95353 19.587 2.19158 20.0284 2.61852C20.1712 2.76067 20.2836 2.93063 20.3588 3.11797V3.13818L21.9158 6.98943C19.4424 6.81621 16.5468 6.72671 13.5247 6.72671C10.5026 6.72671 7.62134 6.81621 5.14796 6.98943ZM22.9241 11.2766C22.6886 11.6284 22.3533 11.901 21.9618 12.059C21.2264 12.3769 20.4544 12.601 19.6636 12.7259H19.5544C19.4287 12.7267 19.3059 12.6873 19.204 12.6133C19.1398 12.5696 19.0851 12.5133 19.0431 12.4478C19.0012 12.3823 18.9728 12.309 18.9598 12.2322C18.8851 11.7876 18.8506 11.1785 19.1207 10.7887C19.1832 10.7002 19.2631 10.6256 19.3555 10.5695C19.4479 10.5133 19.5508 10.4769 19.6579 10.4625L22.2777 10.0496C22.4242 10.029 22.5732 10.0585 22.7009 10.1334C22.8286 10.2083 22.9275 10.3242 22.9816 10.4625C23.0336 10.5938 23.0555 10.7352 23.0455 10.8762C23.0356 11.0171 22.9941 11.154 22.9241 11.2766Z" fill="#B0B5C1"/>
<path d="M21.6252 20.2609C24.5 20.2609 26.8305 17.9188 26.8305 15.0297C26.8305 12.1406 24.5 9.79846 21.6252 9.79846C18.7504 9.79846 16.4199 12.1406 16.4199 15.0297C16.4199 17.9188 18.7504 20.2609 21.6252 20.2609Z" fill="#068922"/>
<path d="M20.7093 18.139L18.167 15.584L19.1178 14.6313L20.7093 16.2307L24.4754 12.4487L25.4234 13.4014L20.7093 18.139Z" fill="white"/>
</svg>
