<svg width="21" height="16" viewBox="0 0 21 16" fill="none" xmlns="http://www.w3.org/2000/svg">
<path d="M20.9703 4.94082C20.8758 4.41476 20.1482 4.53614 19.8234 4.56447C19.5948 4.58785 19.3699 4.63811 19.1534 4.71419C19.1041 4.71419 18.8451 4.81538 18.6601 4.89631L18.6314 4.82345L17.2913 1.58622C17.1733 1.29471 16.9956 1.03028 16.7692 0.80931C16.2151 0.289782 15.4792 1.7941e-06 14.7139 1.7941e-06H6.28714C5.52173 -0.000832114 4.78551 0.289067 4.23183 0.80931C4.00552 1.03112 3.82663 1.29526 3.70568 1.58622L2.36561 4.82345L2.33684 4.89631C2.15186 4.81538 1.89289 4.73037 1.84767 4.71419C1.63095 4.63898 1.4061 4.58874 1.17764 4.56447C0.832343 4.524 0.121214 4.41476 0.0307801 4.94082C-0.0397207 5.23815 0.0119818 5.55087 0.174642 5.81083C0.329554 5.97646 0.521956 6.1038 0.736215 6.18254C0.950475 6.26128 1.18056 6.28921 1.40783 6.26404L1.67503 6.23569C1.54747 6.41672 1.41026 6.59098 1.26397 6.75771L1.18175 6.85887C0.838623 7.26444 0.650971 7.77571 0.651489 8.30352V14.8063C0.651489 15.4659 0.988542 16 1.40372 16H3.20829C3.61935 16 3.96054 15.4659 3.96054 14.8063V13.5397H17.0611V14.8063C17.0611 15.4659 17.3982 16 17.8134 16H19.6015C20.0125 16 20.3537 15.4659 20.3537 14.8063V8.30352C20.351 7.77557 20.1621 7.26491 19.8193 6.85887L19.7371 6.75771C19.5894 6.5921 19.4522 6.41776 19.3261 6.23569L19.5932 6.26404C19.8205 6.28856 20.0504 6.26035 20.2645 6.18165C20.4787 6.10295 20.6711 5.97594 20.8264 5.81083C20.9874 5.55025 21.039 5.2382 20.9703 4.94082ZM5.80621 9.79667C5.79479 9.86264 5.76997 9.92568 5.73325 9.982C5.69652 10.0383 5.64863 10.0868 5.59244 10.1245C5.50399 10.1876 5.39753 10.2216 5.28826 10.2216H5.19373C4.50193 10.1177 3.82643 9.92733 3.18362 9.65505C2.84674 9.52038 2.55983 9.28736 2.3615 8.98736C2.30169 8.88283 2.26624 8.76649 2.2577 8.64682C2.24917 8.52715 2.26778 8.40714 2.31217 8.29541C2.36149 8.17812 2.44965 8.08066 2.56234 8.01894C2.67503 7.95723 2.80564 7.93486 2.93288 7.95547L5.21016 8.30752C5.30344 8.3187 5.39332 8.34899 5.47402 8.39638C5.55472 8.44377 5.62446 8.50722 5.67878 8.5827C5.86911 8.95884 5.91439 9.39017 5.80621 9.79667ZM3.20829 5.34547L4.56479 2.07183V2.05158C4.6337 1.89992 4.73137 1.76258 4.85254 1.64692C5.2356 1.28347 5.74689 1.08038 6.27891 1.0804H14.718C15.2495 1.0793 15.7607 1.28089 16.1444 1.64287C16.2657 1.75846 16.3633 1.89582 16.4322 2.04753V2.06778L17.7846 5.34142C15.6347 5.19574 13.119 5.11884 10.4923 5.11884C7.86561 5.11884 5.36225 5.19979 3.20829 5.34547ZM18.656 8.98736C18.4559 9.28582 18.1696 9.51839 17.8339 9.65505C17.1926 9.92755 16.5184 10.1179 15.8279 10.2216H15.7293C15.62 10.2216 15.5135 10.1876 15.4251 10.1245C15.3695 10.0866 15.3223 10.038 15.2862 9.98166C15.2502 9.92533 15.2261 9.86239 15.2154 9.79667C15.1111 9.38871 15.1607 8.95732 15.3552 8.5827C15.4087 8.50734 15.4777 8.44389 15.5577 8.39648C15.6377 8.34907 15.727 8.31875 15.8197 8.30752L18.097 7.95547C18.2243 7.93411 18.3552 7.95615 18.4681 8.01796C18.5809 8.07976 18.669 8.17766 18.7177 8.29541C18.762 8.40768 18.7795 8.52846 18.7688 8.64845C18.7581 8.76844 18.7195 8.88441 18.656 8.98736Z" fill="#B0B5C1"/>
</svg>
