<svg width="21" height="19" viewBox="0 0 21 19" fill="none" xmlns="http://www.w3.org/2000/svg">
<path d="M17.7719 2.41373L17.7731 2.41496C19.4651 4.1069 19.6687 7.05262 17.35 9.41752L10.0669 16.7007L2.78372 9.41751C0.465071 7.05261 0.668706 4.1069 2.36065 2.41496L2.36187 2.41373C2.77025 2.00393 3.25551 1.67878 3.78982 1.45692C4.32413 1.23506 4.89698 1.12085 5.47552 1.12085C6.05406 1.12085 6.62691 1.23506 7.16122 1.45692C7.69483 1.67849 8.17951 2.00308 8.58755 2.41211C8.58809 2.41265 8.58863 2.41319 8.58917 2.41373L9.35524 3.18977L10.0669 3.91066L10.7785 3.18977L11.5446 2.41373C11.5452 2.41319 11.5457 2.41265 11.5462 2.41211C11.9543 2.00308 12.439 1.67849 12.9726 1.45692C13.5069 1.23506 14.0797 1.12085 14.6583 1.12085C15.2368 1.12085 15.8097 1.23506 16.344 1.45692C16.8783 1.67878 17.3635 2.00393 17.7719 2.41373Z" stroke="#999999" stroke-width="2"/>
</svg>
