<svg width="24" height="22" viewBox="0 0 24 22" fill="none" xmlns="http://www.w3.org/2000/svg">
<path d="M21.2106 2.99037L21.2121 2.9919C23.2211 5.00089 23.4692 8.50413 20.7044 11.3243L12 20.0287L3.29569 11.3244C0.530806 8.50418 0.778851 5.00091 2.78786 2.9919L2.78939 2.99037C3.2748 2.50327 3.85159 2.11678 4.48668 1.85307C5.12178 1.58936 5.80268 1.45361 6.49035 1.45361C7.17802 1.45361 7.85892 1.58936 8.49402 1.85307C9.12824 2.11642 9.70432 2.50221 10.1893 2.98837C10.19 2.98903 10.1906 2.9897 10.1913 2.99037L11.1104 3.92144L12 4.82256L12.8896 3.92144L13.8087 2.99037C13.8093 2.98971 13.81 2.98905 13.8107 2.98839C14.2957 2.50222 14.8717 2.11643 15.506 1.85307C16.1411 1.58936 16.822 1.45361 17.5096 1.45361C18.1973 1.45361 18.8782 1.58936 19.5133 1.85307C20.1484 2.11678 20.7252 2.50327 21.2106 2.99037Z" stroke="#0D1E70" stroke-width="2.5"/>
</svg>
